  0
SECTION
  2
HEADER
  9
$ACADVER
  1
AC1014
  9
$ACADMAINTVER
 70
     9
  9
$DWGCODEPAGE
  3
ANSI_1252
  9
$INSBASE
 10
0.0
 20
0.0
 30
0.0
  9
$EXTMIN
 10
-321.1842762008964
 20
61.54584944335809
 30
50.00784729514271
  9
$EXTMAX
 10
-111.1875808587084
 20
345.1827972241015
 30
50.00784729514274
  9
$LIMMIN
 10
0.0
 20
0.0
  9
$LIMMAX
 10
12.0
 20
9.0
  9
$ORTHOMODE
 70
     0
  9
$REGENMODE
 70
     1
  9
$FILLMODE
 70
     1
  9
$QTEXTMODE
 70
     0
  9
$MIRRTEXT
 70
     1
  9
$DRAGMODE
 70
     2
  9
$LTSCALE
 40
1.0
  9
$OSMODE
 70
    37
  9
$ATTMODE
 70
     1
  9
$TEXTSIZE
 40
0.2
  9
$TRACEWID
 40
0.05
  9
$TEXTSTYLE
  7
STANDARD
  9
$CLAYER
  8
0
  9
$CELTYPE
  6
BYLAYER
  9
$CECOLOR
 62
   256
  9
$CELTSCALE
 40
1.0
  9
$DELOBJ
 70
     1
  9
$DISPSILH
 70
     0
  9
$DIMSCALE
 40
1.0
  9
$DIMASZ
 40
0.18
  9
$DIMEXO
 40
0.0625
  9
$DIMDLI
 40
0.38
  9
$DIMRND
 40
0.0
  9
$DIMDLE
 40
0.0
  9
$DIMEXE
 40
0.18
  9
$DIMTP
 40
0.0
  9
$DIMTM
 40
0.0
  9
$DIMTXT
 40
0.18
  9
$DIMCEN
 40
0.09
  9
$DIMTSZ
 40
0.0
  9
$DIMTOL
 70
     0
  9
$DIMLIM
 70
     0
  9
$DIMTIH
 70
     1
  9
$DIMTOH
 70
     1
  9
$DIMSE1
 70
     0
  9
$DIMSE2
 70
     0
  9
$DIMTAD
 70
     0
  9
$DIMZIN
 70
     0
  9
$DIMBLK
  1

  9
$DIMASO
 70
     1
  9
$DIMSHO
 70
     1
  9
$DIMPOST
  1

  9
$DIMAPOST
  1

  9
$DIMALT
 70
     0
  9
$DIMALTD
 70
     2
  9
$DIMALTF
 40
25.4
  9
$DIMLFAC
 40
1.0
  9
$DIMTOFL
 70
     0
  9
$DIMTVP
 40
0.0
  9
$DIMTIX
 70
     0
  9
$DIMSOXD
 70
     0
  9
$DIMSAH
 70
     0
  9
$DIMBLK1
  1

  9
$DIMBLK2
  1

  9
$DIMSTYLE
  2
STANDARD_ACAD
  9
$DIMCLRD
 70
     0
  9
$DIMCLRE
 70
     0
  9
$DIMCLRT
 70
     0
  9
$DIMTFAC
 40
1.0
  9
$DIMGAP
 40
0.09
  9
$DIMJUST
 70
     0
  9
$DIMSD1
 70
     0
  9
$DIMSD2
 70
     0
  9
$DIMTOLJ
 70
     1
  9
$DIMTZIN
 70
     0
  9
$DIMALTZ
 70
     0
  9
$DIMALTTZ
 70
     0
  9
$DIMFIT
 70
     5
  9
$DIMUPT
 70
     0
  9
$DIMUNIT
 70
     2
  9
$DIMDEC
 70
     4
  9
$DIMTDEC
 70
     4
  9
$DIMALTU
 70
     2
  9
$DIMALTTD
 70
     2
  9
$DIMTXSTY
  7
STANDARD
  9
$DIMAUNIT
 70
     0
  9
$LUNITS
 70
     2
  9
$LUPREC
 70
     3
  9
$SKETCHINC
 40
0.1
  9
$FILLETRAD
 40
0.0
  9
$AUNITS
 70
     0
  9
$AUPREC
 70
     0
  9
$MENU
  1
.
  9
$ELEVATION
 40
0.0
  9
$PELEVATION
 40
0.0
  9
$THICKNESS
 40
0.0
  9
$LIMCHECK
 70
     0
  9
$CHAMFERA
 40
0.0
  9
$CHAMFERB
 40
0.0
  9
$CHAMFERC
 40
0.0
  9
$CHAMFERD
 40
0.0
  9
$SKPOLY
 70
     0
  9
$TDCREATE
 40
2460067.528708079
  9
$TDUPDATE
 40
2460067.528720579
  9
$TDINDWG
 40
0.0000000116
  9
$TDUSRTIMER
 40
0.0000000116
  9
$USRTIMER
 70
     1
  9
$ANGBASE
 50
0.0
  9
$ANGDIR
 70
     0
  9
$PDMODE
 70
     0
  9
$PDSIZE
 40
0.0
  9
$PLINEWID
 40
0.0
  9
$COORDS
 70
     1
  9
$SPLFRAME
 70
     0
  9
$SPLINETYPE
 70
     6
  9
$SPLINESEGS
 70
     8
  9
$ATTDIA
 70
     0
  9
$ATTREQ
 70
     1
  9
$HANDLING
 70
     1
  9
$HANDSEED
  5
2FC
  9
$SURFTAB1
 70
     6
  9
$SURFTAB2
 70
     6
  9
$SURFTYPE
 70
     6
  9
$SURFU
 70
     6
  9
$SURFV
 70
     6
  9
$UCSNAME
  2

  9
$UCSORG
 10
0.0
 20
0.0
 30
0.0
  9
$UCSXDIR
 10
1.0
 20
0.0
 30
0.0
  9
$UCSYDIR
 10
0.0
 20
1.0
 30
0.0
  9
$PUCSNAME
  2

  9
$PUCSORG
 10
0.0
 20
0.0
 30
0.0
  9
$PUCSXDIR
 10
1.0
 20
0.0
 30
0.0
  9
$PUCSYDIR
 10
0.0
 20
1.0
 30
0.0
  9
$USERI1
 70
     0
  9
$USERI2
 70
     0
  9
$USERI3
 70
     0
  9
$USERI4
 70
     0
  9
$USERI5
 70
     0
  9
$USERR1
 40
0.0
  9
$USERR2
 40
0.0
  9
$USERR3
 40
0.0
  9
$USERR4
 40
0.0
  9
$USERR5
 40
0.0
  9
$WORLDVIEW
 70
     1
  9
$SHADEDGE
 70
     3
  9
$SHADEDIF
 70
    70
  9
$TILEMODE
 70
     1
  9
$MAXACTVP
 70
    64
  9
$PINSBASE
 10
0.0
 20
0.0
 30
0.0
  9
$PLIMCHECK
 70
     0
  9
$PEXTMIN
 10
1.000000000000000E+20
 20
1.000000000000000E+20
 30
1.000000000000000E+20
  9
$PEXTMAX
 10
-1.000000000000000E+20
 20
-1.000000000000000E+20
 30
-1.000000000000000E+20
  9
$PLIMMIN
 10
0.0
 20
0.0
  9
$PLIMMAX
 10
12.0
 20
9.0
  9
$UNITMODE
 70
     0
  9
$VISRETAIN
 70
     1
  9
$PLINEGEN
 70
     0
  9
$PSLTSCALE
 70
     1
  9
$TREEDEPTH
 70
  3020
  9
$PICKSTYLE
 70
     1
  9
$CMLSTYLE
  2
STANDARD
  9
$CMLJUST
 70
     0
  9
$CMLSCALE
 40
1.0
  9
$PROXYGRAPHICS
 70
     1
  9
$MEASUREMENT
 70
     1
  0
ENDSEC
  0
SECTION
  2
CLASSES
  0
CLASS
  1
ACDBDICTIONARYWDFLT
  2
AcDbDictionaryWithDefault
  3
ObjectDBX Classes
 90
        0
280
     0
281
     0
  0
CLASS
  1
VISUALSTYLE
  2
AcDbVisualStyle
  3
ObjectDBX Classes
 90
     4095
280
     0
281
     0
  0
CLASS
  1
MATERIAL
  2
AcDbMaterial
  3
ObjectDBX Classes
 90
     1153
280
     0
281
     0
  0
CLASS
  1
SCALE
  2
AcDbScale
  3
ObjectDBX Classes
 90
     1153
280
     0
281
     0
  0
CLASS
  1
TABLESTYLE
  2
AcDbTableStyle
  3
ObjectDBX Classes
 90
     4095
280
     0
281
     0
  0
CLASS
  1
MLEADERSTYLE
  2
AcDbMLeaderStyle
  3
ACDB_MLEADERSTYLE_CLASS
 90
     4095
280
     0
281
     0
  0
CLASS
  1
SUN
  2
AcDbSun
  3
SCENEOE
 90
     1153
280
     0
281
     0
  0
CLASS
  1
DICTIONARYVAR
  2
AcDbDictionaryVar
  3
ObjectDBX Classes
 90
        0
280
     0
281
     0
  0
CLASS
  1
XRECORD
  2
AcDbXrecord
  3
ObjectDBX Classes
 90
        0
280
     0
281
     0
  0
CLASS
  1
LWPOLYLINE
  2
AcDbPolyline
  3
ObjectDBX Classes
 90
        0
280
     0
281
     1
  0
CLASS
  1
HATCH
  2
AcDbHatch
  3
ObjectDBX Classes
 90
        0
280
     0
281
     1
  0
CLASS
  1
ACDBPLACEHOLDER
  2
AcDbPlaceHolder
  3
ObjectDBX Classes
 90
        0
280
     0
281
     0
  0
CLASS
  1
LAYOUT
  2
AcDbLayout
  3
ObjectDBX Classes
 90
        0
280
     0
281
     0
  0
ENDSEC
  0
SECTION
  2
TABLES
  0
TABLE
  2
VPORT
  5
8
102
{ACAD_XDICTIONARY
360
2F1
102
}
330
0
100
AcDbSymbolTable
 70
     1
  0
VPORT
  5
29
330
8
100
AcDbSymbolTableRecord
100
AcDbViewportTableRecord
  2
*ACTIVE
 70
     0
 10
0.0
 20
0.0
 11
1.0
 21
1.0
 12
10.42990654205607
 22
4.5
 13
0.0
 23
0.0
 14
0.5
 24
0.5
 15
0.5
 25
0.5
 16
0.0
 26
0.0
 36
1.0
 17
0.0
 27
0.0
 37
0.0
 40
9.0
 41
1.972972972850329
 42
50.0
 43
0.0
 44
0.0
 50
0.0
 51
0.0
 71
     0
 72
   100
 73
     1
 74
     3
 75
     0
 76
     0
 77
     0
 78
     0
  0
ENDTAB
  0
TABLE
  2
LTYPE
  5
5
330
0
100
AcDbSymbolTable
 70
     1
  0
LTYPE
  5
14
330
5
100
AcDbSymbolTableRecord
100
AcDbLinetypeTableRecord
  2
BYBLOCK
 70
     0
  3

 72
    65
 73
     0
 40
0.0
  0
LTYPE
  5
15
330
5
100
AcDbSymbolTableRecord
100
AcDbLinetypeTableRecord
  2
BYLAYER
 70
     0
  3

 72
    65
 73
     0
 40
0.0
  0
LTYPE
  5
16
330
5
100
AcDbSymbolTableRecord
100
AcDbLinetypeTableRecord
  2
CONTINUOUS
 70
     0
  3
Solid line
 72
    65
 73
     0
 40
0.0
  0
ENDTAB
  0
TABLE
  2
LAYER
  5
2
330
0
100
AcDbSymbolTable
 70
     2
  0
LAYER
  5
10
330
2
100
AcDbSymbolTableRecord
100
AcDbLayerTableRecord
  2
0
 70
     0
 62
     7
  6
CONTINUOUS
  0
LAYER
  5
5F
330
2
100
AcDbSymbolTableRecord
100
AcDbLayerTableRecord
  2
000__\U+6742\U+9879
 70
     0
 62
    18
  6
CONTINUOUS
  0
ENDTAB
  0
TABLE
  2
STYLE
  5
3
330
0
100
AcDbSymbolTable
 70
     1
  0
STYLE
  5
11
330
3
100
AcDbSymbolTableRecord
100
AcDbTextStyleTableRecord
  2
STANDARD
 70
     0
 40
0.0
 41
1.0
 50
0.0
 71
     0
 42
0.2
  3
txt
  4

  0
ENDTAB
  0
TABLE
  2
VIEW
  5
6
330
0
100
AcDbSymbolTable
 70
     0
  0
ENDTAB
  0
TABLE
  2
UCS
  5
7
330
0
100
AcDbSymbolTable
 70
     0
  0
ENDTAB
  0
TABLE
  2
APPID
  5
9
330
0
100
AcDbSymbolTable
 70
     3
  0
APPID
  5
12
330
9
100
AcDbSymbolTableRecord
100
AcDbRegAppTableRecord
  2
ACAD
 70
     0
  0
APPID
  5
5E
330
9
100
AcDbSymbolTableRecord
100
AcDbRegAppTableRecord
  2
RHINO
 70
     0
  0
APPID
  5
2FB
330
9
100
AcDbSymbolTableRecord
100
AcDbRegAppTableRecord
  2
ACAD_MLEADERVER
 70
     0
  0
ENDTAB
  0
TABLE
  2
DIMSTYLE
  5
A
330
0
100
AcDbSymbolTable
 70
     1
  0
DIMSTYLE
105
27
330
A
100
AcDbSymbolTableRecord
100
AcDbDimStyleTableRecord
  2
STANDARD_ACAD
 70
     0
  3

  4

  5

  6

  7

 40
1.0
 41
0.18
 42
0.0625
 43
0.38
 44
0.18
 45
0.0
 46
0.0
 47
0.0
 48
0.0
140
0.18
141
0.09
142
0.0
143
25.4
144
1.0
145
0.0
146
1.0
147
0.09
 71
     0
 72
     0
 73
     1
 74
     1
 75
     0
 76
     0
 77
     0
 78
     0
170
     0
171
     2
172
     0
173
     0
174
     0
175
     0
176
     0
177
     0
178
     0
270
     2
271
     4
272
     4
273
     2
274
     2
340
11
275
     0
280
     0
281
     0
282
     0
283
     1
284
     0
285
     0
286
     0
287
     3
288
     0
  0
ENDTAB
  0
TABLE
  2
BLOCK_RECORD
  5
1
330
0
100
AcDbSymbolTable
 70
     0
  0
BLOCK_RECORD
  5
1F
330
1
100
AcDbSymbolTableRecord
100
AcDbBlockTableRecord
  2
*MODEL_SPACE
  0
BLOCK_RECORD
  5
1B
330
1
100
AcDbSymbolTableRecord
100
AcDbBlockTableRecord
  2
*PAPER_SPACE
  0
ENDTAB
  0
ENDSEC
  0
SECTION
  2
BLOCKS
  0
BLOCK
  5
20
330
1F
100
AcDbEntity
  8
0
100
AcDbBlockBegin
  2
*MODEL_SPACE
 70
     0
 10
0.0
 20
0.0
 30
0.0
  3
*MODEL_SPACE
  1

  0
ENDBLK
  5
21
330
1F
100
AcDbEntity
  8
0
100
AcDbBlockEnd
  0
BLOCK
  5
1C
330
1B
100
AcDbEntity
 67
     1
  8
0
100
AcDbBlockBegin
  2
*PAPER_SPACE
 70
     0
 10
0.0
 20
0.0
 30
0.0
  3
*PAPER_SPACE
  1

  0
ENDBLK
  5
1D
330
1B
100
AcDbEntity
 67
     1
  8
0
100
AcDbBlockEnd
  0
ENDSEC
  0
SECTION
  2
ENTITIES
  0
LINE
  5
60
330
1F
100
AcDbEntity
  8
000__\U+6742\U+9879
100
AcDbLine
 10
-114.187580858659
 20
334.3643229030731
 30
50.00784729514274
 11
-136.187578825374
 21
334.3643229030731
 31
50.00784729514271
  0
ARC
  5
61
330
1F
100
AcDbEntity
  8
000__\U+6742\U+9879
100
AcDbCircle
 10
136.1875774353484
 20
340.3643229031884
 30
-50.00784729514271
 40
6.000000000115497
210
0.0
220
0.0
230
-1.0
100
AcDbArc
 50
270.0000132737662
 51
348.9793924012681
  0
ARC
  5
62
330
1F
100
AcDbEntity
  8
000__\U+6742\U+9879
100
AcDbCircle
 10
136.1875774353518
 20
340.3643229031884
 30
-50.00784729514272
 40
6.000000000112192
210
0.0
220
0.0
230
-1.0
100
AcDbArc
 50
348.9793924012619
 51
359.9999933808317
  0
POLYLINE
  5
63
330
1F
100
AcDbEntity
  8
000__\U+6742\U+9879
100
AcDb2dPolyline
 66
     1
 10
0.0
 20
0.0
 30
50.00784729514272
  0
VERTEX
  5
64
330
63
100
AcDbEntity
  8
000__\U+6742\U+9879
100
AcDbVertex
100
AcDb2dVertex
 10
-142.187577435464
 20
340.3643222100307
 30
50.00784729514272
  0
VERTEX
  5
65
330
63
100
AcDbEntity
  8
000__\U+6742\U+9879
100
AcDbVertex
100
AcDb2dVertex
 10
-142.187577435464
 20
342.1827972241015
 30
50.00784729514272
  0
SEQEND
  5
66
330
63
100
AcDbEntity
  8
000__\U+6742\U+9879
  0
POLYLINE
  5
67
330
1F
100
AcDbEntity
  8
000__\U+6742\U+9879
100
AcDb2dPolyline
 66
     1
 10
0.0
 20
0.0
 30
50.00784729514272
  0
VERTEX
  5
68
330
67
100
AcDbEntity
  8
000__\U+6742\U+9879
100
AcDbVertex
100
AcDb2dVertex
 10
-142.187577435464
 20
342.1827972241015
 30
50.00784729514272
  0
VERTEX
  5
69
330
67
100
AcDbEntity
  8
000__\U+6742\U+9879
100
AcDbVertex
100
AcDb2dVertex
 10
-142.1883165163833
 20
342.2493850553864
 30
50.00784729514272
  0
VERTEX
  5
6A
330
67
100
AcDbEntity
  8
000__\U+6742\U+9879
100
AcDbVertex
100
AcDb2dVertex
 10
-142.190560015347
 20
342.3165379565474
 30
50.00784729514272
  0
VERTEX
  5
6B
330
67
100
AcDbEntity
  8
000__\U+6742\U+9879
100
AcDbVertex
100
AcDb2dVertex
 10
-142.1943463866966
 20
342.3842119422698
 30
50.00784729514272
  0
VERTEX
  5
6C
330
67
100
AcDbEntity
  8
000__\U+6742\U+9879
100
AcDbVertex
100
AcDb2dVertex
 10
-142.1997127096253
 20
342.4523605377946
 30
50.00784729514272
  0
VERTEX
  5
6D
330
67
100
AcDbEntity
  8
000__\U+6742\U+9879
100
AcDbVertex
100
AcDb2dVertex
 10
-142.2066945168777
 20
342.5209348080531
 30
50.00784729514272
  0
VERTEX
  5
6E
330
67
100
AcDbEntity
  8
000__\U+6742\U+9879
100
AcDbVertex
100
AcDb2dVertex
 10
-142.2153256214593
 20
342.5898833994324
 30
50.00784729514272
  0
VERTEX
  5
6F
330
67
100
AcDbEntity
  8
000__\U+6742\U+9879
100
AcDbVertex
100
AcDb2dVertex
 10
-142.2256379423405
 20
342.6591525946762
 30
50.00784729514272
  0
VERTEX
  5
70
330
67
100
AcDbEntity
  8
000__\U+6742\U+9879
100
AcDbVertex
100
AcDb2dVertex
 10
-142.2376613302143
 20
342.728686381338
 30
50.00784729514272
  0
VERTEX
  5
71
330
67
100
AcDbEntity
  8
000__\U+6742\U+9879
100
AcDbVertex
100
AcDb2dVertex
 10
-142.2514233944354
 20
342.7984265341183
 30
50.00784729514272
  0
VERTEX
  5
72
330
67
100
AcDbEntity
  8
000__\U+6742\U+9879
100
AcDbVertex
100
AcDb2dVertex
 10
-142.2669493323357
 20
342.8683127113209
 30
50.00784729514272
  0
VERTEX
  5
73
330
67
100
AcDbEntity
  8
000__\U+6742\U+9879
100
AcDbVertex
100
AcDb2dVertex
 10
-142.2842617621586
 20
342.9382825655471
 30
50.00784729514272
  0
VERTEX
  5
74
330
67
100
AcDbEntity
  8
000__\U+6742\U+9879
100
AcDbVertex
100
AcDb2dVertex
 10
-142.3033805609029
 20
343.0082718686376
 30
50.00784729514272
  0
VERTEX
  5
75
330
67
100
AcDbEntity
  8
000__\U+6742\U+9879
100
AcDbVertex
100
AcDb2dVertex
 10
-142.3243227083968
 20
343.0782146507397
 30
50.00784729514272
  0
VERTEX
  5
76
330
67
100
AcDbEntity
  8
000__\U+6742\U+9879
100
AcDbVertex
100
AcDb2dVertex
 10
-142.347102138939
 20
343.1480433532474
 30
50.00784729514272
  0
VERTEX
  5
77
330
67
100
AcDbEntity
  8
000__\U+6742\U+9879
100
AcDbVertex
100
AcDb2dVertex
 10
-142.3717296018518
 20
343.2176889952261
 30
50.00784729514272
  0
VERTEX
  5
78
330
67
100
AcDbEntity
  8
000__\U+6742\U+9879
100
AcDbVertex
100
AcDb2dVertex
 10
-142.3982125322767
 20
343.2870813527872
 30
50.00784729514272
  0
VERTEX
  5
79
330
67
100
AcDbEntity
  8
000__\U+6742\U+9879
100
AcDbVertex
100
AcDb2dVertex
 10
-142.426554933518
 20
343.3561491507407
 30
50.00784729514272
  0
VERTEX
  5
7A
330
67
100
AcDbEntity
  8
000__\U+6742\U+9879
100
AcDbVertex
100
AcDb2dVertex
 10
-142.4567572721938
 20
343.4248202657061
 30
50.00784729514272
  0
VERTEX
  5
7B
330
67
100
AcDbEntity
  8
000__\U+6742\U+9879
100
AcDbVertex
100
AcDb2dVertex
 10
-142.4888163873952
 20
343.4930219397233
 30
50.00784729514272
  0
VERTEX
  5
7C
330
67
100
AcDbEntity
  8
000__\U+6742\U+9879
100
AcDbVertex
100
AcDb2dVertex
 10
-142.5227254149748
 20
343.5606810032696
 30
50.00784729514272
  0
VERTEX
  5
7D
330
67
100
AcDbEntity
  8
000__\U+6742\U+9879
100
AcDbVertex
100
AcDb2dVertex
 10
-142.5584737279907
 20
343.6277241064558
 30
50.00784729514272
  0
VERTEX
  5
7E
330
67
100
AcDbEntity
  8
000__\U+6742\U+9879
100
AcDbVertex
100
AcDb2dVertex
 10
-142.5960468942217
 20
343.694077957059
 30
50.00784729514272
  0
VERTEX
  5
7F
330
67
100
AcDbEntity
  8
000__\U+6742\U+9879
100
AcDbVertex
100
AcDb2dVertex
 10
-142.6354266515428
 20
343.7596695639345
 30
50.00784729514272
  0
VERTEX
  5
80
330
67
100
AcDbEntity
  8
000__\U+6742\U+9879
100
AcDbVertex
100
AcDb2dVertex
 10
-142.676590901808
 20
343.8244264842569
 30
50.00784729514272
  0
VERTEX
  5
81
330
67
100
AcDbEntity
  8
000__\U+6742\U+9879
100
AcDbVertex
100
AcDb2dVertex
 10
-142.7195137237375
 20
343.888277072959
 30
50.00784729514272
  0
VERTEX
  5
82
330
67
100
AcDbEntity
  8
000__\U+6742\U+9879
100
AcDbVertex
100
AcDb2dVertex
 10
-142.764165405137
 20
343.9511507326699
 30
50.00784729514272
  0
VERTEX
  5
83
330
67
100
AcDbEntity
  8
000__\U+6742\U+9879
100
AcDbVertex
100
AcDb2dVertex
 10
-142.8105124946097
 20
344.0129781624137
 30
50.00784729514272
  0
VERTEX
  5
84
330
67
100
AcDbEntity
  8
000__\U+6742\U+9879
100
AcDbVertex
100
AcDb2dVertex
 10
-142.8585178727395
 20
344.0736916032993
 30
50.00784729514272
  0
VERTEX
  5
85
330
67
100
AcDbEntity
  8
000__\U+6742\U+9879
100
AcDbVertex
100
AcDb2dVertex
 10
-142.9081408425405
 20
344.1332250794301
 30
50.00784729514272
  0
VERTEX
  5
86
330
67
100
AcDbEntity
  8
000__\U+6742\U+9879
100
AcDbVertex
100
AcDb2dVertex
 10
-142.9593372387868
 20
344.1915146322782
 30
50.00784729514272
  0
VERTEX
  5
87
330
67
100
AcDbEntity
  8
000__\U+6742\U+9879
100
AcDbVertex
100
AcDb2dVertex
 10
-143.0120595556508
 20
344.2484985468035
 30
50.00784729514272
  0
VERTEX
  5
88
330
67
100
AcDbEntity
  8
000__\U+6742\U+9879
100
AcDbVertex
100
AcDb2dVertex
 10
-143.0662570919044
 20
344.3041175676612
 30
50.00784729514272
  0
VERTEX
  5
89
330
67
100
AcDbEntity
  8
000__\U+6742\U+9879
100
AcDbVertex
100
AcDb2dVertex
 10
-143.121876112762
 20
344.3583151039148
 30
50.00784729514272
  0
VERTEX
  5
8A
330
67
100
AcDbEntity
  8
000__\U+6742\U+9879
100
AcDbVertex
100
AcDb2dVertex
 10
-143.1788600272874
 20
344.4110374207789
 30
50.00784729514272
  0
VERTEX
  5
8B
330
67
100
AcDbEntity
  8
000__\U+6742\U+9879
100
AcDbVertex
100
AcDb2dVertex
 10
-143.2371495801355
 20
344.4622338170251
 30
50.00784729514272
  0
VERTEX
  5
8C
330
67
100
AcDbEntity
  8
000__\U+6742\U+9879
100
AcDbVertex
100
AcDb2dVertex
 10
-143.2966830562663
 20
344.5118567868261
 30
50.00784729514272
  0
VERTEX
  5
8D
330
67
100
AcDbEntity
  8
000__\U+6742\U+9879
100
AcDbVertex
100
AcDb2dVertex
 10
-143.3573964971519
 20
344.5598621649559
 30
50.00784729514272
  0
VERTEX
  5
8E
330
67
100
AcDbEntity
  8
000__\U+6742\U+9879
100
AcDbVertex
100
AcDb2dVertex
 10
-143.4192239268956
 20
344.6062092544286
 30
50.00784729514272
  0
VERTEX
  5
8F
330
67
100
AcDbEntity
  8
000__\U+6742\U+9879
100
AcDbVertex
100
AcDb2dVertex
 10
-143.4820975866065
 20
344.650860935828
 30
50.00784729514272
  0
VERTEX
  5
90
330
67
100
AcDbEntity
  8
000__\U+6742\U+9879
100
AcDbVertex
100
AcDb2dVertex
 10
-143.5459481753086
 20
344.6937837577574
 30
50.00784729514272
  0
VERTEX
  5
91
330
67
100
AcDbEntity
  8
000__\U+6742\U+9879
100
AcDbVertex
100
AcDb2dVertex
 10
-143.6107050956311
 20
344.7349480080229
 30
50.00784729514272
  0
VERTEX
  5
92
330
67
100
AcDbEntity
  8
000__\U+6742\U+9879
100
AcDbVertex
100
AcDb2dVertex
 10
-143.6762967025066
 20
344.7743277653439
 30
50.00784729514272
  0
VERTEX
  5
93
330
67
100
AcDbEntity
  8
000__\U+6742\U+9879
100
AcDbVertex
100
AcDb2dVertex
 10
-143.7426505531098
 20
344.8119009315749
 30
50.00784729514272
  0
VERTEX
  5
94
330
67
100
AcDbEntity
  8
000__\U+6742\U+9879
100
AcDbVertex
100
AcDb2dVertex
 10
-143.809693656296
 20
344.8476492445908
 30
50.00784729514272
  0
VERTEX
  5
95
330
67
100
AcDbEntity
  8
000__\U+6742\U+9879
100
AcDbVertex
100
AcDb2dVertex
 10
-143.8773527198422
 20
344.8815582721704
 30
50.00784729514272
  0
VERTEX
  5
96
330
67
100
AcDbEntity
  8
000__\U+6742\U+9879
100
AcDbVertex
100
AcDb2dVertex
 10
-143.9455543938595
 20
344.9136173873718
 30
50.00784729514272
  0
VERTEX
  5
97
330
67
100
AcDbEntity
  8
000__\U+6742\U+9879
100
AcDbVertex
100
AcDb2dVertex
 10
-144.0142255088249
 20
344.9438197260476
 30
50.00784729514272
  0
VERTEX
  5
98
330
67
100
AcDbEntity
  8
000__\U+6742\U+9879
100
AcDbVertex
100
AcDb2dVertex
 10
-144.0832933067784
 20
344.9721621272889
 30
50.00784729514272
  0
VERTEX
  5
99
330
67
100
AcDbEntity
  8
000__\U+6742\U+9879
100
AcDbVertex
100
AcDb2dVertex
 10
-144.1526856643395
 20
344.9986450577138
 30
50.00784729514272
  0
VERTEX
  5
9A
330
67
100
AcDbEntity
  8
000__\U+6742\U+9879
100
AcDbVertex
100
AcDb2dVertex
 10
-144.2223313063182
 20
345.0232725206266
 30
50.00784729514272
  0
VERTEX
  5
9B
330
67
100
AcDbEntity
  8
000__\U+6742\U+9879
100
AcDbVertex
100
AcDb2dVertex
 10
-144.2921600088259
 20
345.0460519511688
 30
50.00784729514272
  0
VERTEX
  5
9C
330
67
100
AcDbEntity
  8
000__\U+6742\U+9879
100
AcDbVertex
100
AcDb2dVertex
 10
-144.3621027909279
 20
345.0669940986626
 30
50.00784729514272
  0
VERTEX
  5
9D
330
67
100
AcDbEntity
  8
000__\U+6742\U+9879
100
AcDbVertex
100
AcDb2dVertex
 10
-144.4320920940185
 20
345.086112897407
 30
50.00784729514272
  0
VERTEX
  5
9E
330
67
100
AcDbEntity
  8
000__\U+6742\U+9879
100
AcDbVertex
100
AcDb2dVertex
 10
-144.5020619482447
 20
345.1034253272298
 30
50.00784729514272
  0
VERTEX
  5
9F
330
67
100
AcDbEntity
  8
000__\U+6742\U+9879
100
AcDbVertex
100
AcDb2dVertex
 10
-144.5719481254472
 20
345.1189512651301
 30
50.00784729514272
  0
VERTEX
  5
A0
330
67
100
AcDbEntity
  8
000__\U+6742\U+9879
100
AcDbVertex
100
AcDb2dVertex
 10
-144.6416882782276
 20
345.1327133293512
 30
50.00784729514272
  0
VERTEX
  5
A1
330
67
100
AcDbEntity
  8
000__\U+6742\U+9879
100
AcDbVertex
100
AcDb2dVertex
 10
-144.7112220648892
 20
345.1447367172249
 30
50.00784729514272
  0
VERTEX
  5
A2
330
67
100
AcDbEntity
  8
000__\U+6742\U+9879
100
AcDbVertex
100
AcDb2dVertex
 10
-144.780491260133
 20
345.1550490381062
 30
50.00784729514272
  0
VERTEX
  5
A3
330
67
100
AcDbEntity
  8
000__\U+6742\U+9879
100
AcDbVertex
100
AcDb2dVertex
 10
-144.8494398515124
 20
345.1636801426878
 30
50.00784729514272
  0
VERTEX
  5
A4
330
67
100
AcDbEntity
  8
000__\U+6742\U+9879
100
AcDbVertex
100
AcDb2dVertex
 10
-144.9180141217709
 20
345.1706619499401
 30
50.00784729514272
  0
VERTEX
  5
A5
330
67
100
AcDbEntity
  8
000__\U+6742\U+9879
100
AcDbVertex
100
AcDb2dVertex
 10
-144.9861627172958
 20
345.176028272869
 30
50.00784729514272
  0
VERTEX
  5
A6
330
67
100
AcDbEntity
  8
000__\U+6742\U+9879
100
AcDbVertex
100
AcDb2dVertex
 10
-145.053836703018
 20
345.1798146442185
 30
50.00784729514272
  0
VERTEX
  5
A7
330
67
100
AcDbEntity
  8
000__\U+6742\U+9879
100
AcDbVertex
100
AcDb2dVertex
 10
-145.1209896041792
 20
345.1820581431822
 30
50.00784729514272
  0
VERTEX
  5
A8
330
67
100
AcDbEntity
  8
000__\U+6742\U+9879
100
AcDbVertex
100
AcDb2dVertex
 10
-145.187577435464
 20
345.1827972241015
 30
50.00784729514272
  0
SEQEND
  5
A9
330
67
100
AcDbEntity
  8
000__\U+6742\U+9879
  0
POLYLINE
  5
AA
330
1F
100
AcDbEntity
  8
000__\U+6742\U+9879
100
AcDb2dPolyline
 66
     1
 10
0.0
 20
0.0
 30
50.00784729514272
  0
VERTEX
  5
AB
330
AA
100
AcDbEntity
  8
000__\U+6742\U+9879
100
AcDbVertex
100
AcDb2dVertex
 10
-145.187577435464
 20
345.1827972241015
 30
50.00784729514272
  0
VERTEX
  5
AC
330
AA
100
AcDbEntity
  8
000__\U+6742\U+9879
100
AcDbVertex
100
AcDb2dVertex
 10
-287.1842796241409
 20
345.1827972241015
 30
50.00784729514272
  0
SEQEND
  5
AD
330
AA
100
AcDbEntity
  8
000__\U+6742\U+9879
  0
POLYLINE
  5
AE
330
1F
100
AcDbEntity
  8
000__\U+6742\U+9879
100
AcDb2dPolyline
 66
     1
 10
0.0
 20
0.0
 30
50.00784729514272
  0
VERTEX
  5
AF
330
AE
100
AcDbEntity
  8
000__\U+6742\U+9879
100
AcDbVertex
100
AcDb2dVertex
 10
-287.1842796241409
 20
345.1827972241015
 30
50.00784729514272
  0
VERTEX
  5
B0
330
AE
100
AcDbEntity
  8
000__\U+6742\U+9879
100
AcDbVertex
100
AcDb2dVertex
 10
-287.2508674554257
 20
345.1820581431823
 30
50.00784729514272
  0
VERTEX
  5
B1
330
AE
100
AcDbEntity
  8
000__\U+6742\U+9879
100
AcDbVertex
100
AcDb2dVertex
 10
-287.3180203565868
 20
345.1798146442185
 30
50.00784729514272
  0
VERTEX
  5
B2
330
AE
100
AcDbEntity
  8
000__\U+6742\U+9879
100
AcDbVertex
100
AcDb2dVertex
 10
-287.385694342309
 20
345.176028272869
 30
50.00784729514272
  0
VERTEX
  5
B3
330
AE
100
AcDbEntity
  8
000__\U+6742\U+9879
100
AcDbVertex
100
AcDb2dVertex
 10
-287.453842937834
 20
345.1706619499402
 30
50.00784729514272
  0
VERTEX
  5
B4
330
AE
100
AcDbEntity
  8
000__\U+6742\U+9879
100
AcDbVertex
100
AcDb2dVertex
 10
-287.5224172080925
 20
345.1636801426878
 30
50.00784729514272
  0
VERTEX
  5
B5
330
AE
100
AcDbEntity
  8
000__\U+6742\U+9879
100
AcDbVertex
100
AcDb2dVertex
 10
-287.5913657994718
 20
345.1550490381063
 30
50.00784729514272
  0
VERTEX
  5
B6
330
AE
100
AcDbEntity
  8
000__\U+6742\U+9879
100
AcDbVertex
100
AcDb2dVertex
 10
-287.6606349947156
 20
345.144736717225
 30
50.00784729514272
  0
VERTEX
  5
B7
330
AE
100
AcDbEntity
  8
000__\U+6742\U+9879
100
AcDbVertex
100
AcDb2dVertex
 10
-287.7301687813774
 20
345.1327133293512
 30
50.00784729514272
  0
VERTEX
  5
B8
330
AE
100
AcDbEntity
  8
000__\U+6742\U+9879
100
AcDbVertex
100
AcDb2dVertex
 10
-287.7999089341577
 20
345.1189512651301
 30
50.00784729514272
  0
VERTEX
  5
B9
330
AE
100
AcDbEntity
  8
000__\U+6742\U+9879
100
AcDbVertex
100
AcDb2dVertex
 10
-287.8697951113602
 20
345.1034253272297
 30
50.00784729514272
  0
VERTEX
  5
BA
330
AE
100
AcDbEntity
  8
000__\U+6742\U+9879
100
AcDbVertex
100
AcDb2dVertex
 10
-287.9397649655864
 20
345.086112897407
 30
50.00784729514272
  0
VERTEX
  5
BB
330
AE
100
AcDbEntity
  8
000__\U+6742\U+9879
100
AcDbVertex
100
AcDb2dVertex
 10
-288.0097542686769
 20
345.0669940986626
 30
50.00784729514272
  0
VERTEX
  5
BC
330
AE
100
AcDbEntity
  8
000__\U+6742\U+9879
100
AcDbVertex
100
AcDb2dVertex
 10
-288.0796970507789
 20
345.0460519511687
 30
50.00784729514272
  0
VERTEX
  5
BD
330
AE
100
AcDbEntity
  8
000__\U+6742\U+9879
100
AcDbVertex
100
AcDb2dVertex
 10
-288.1495257532866
 20
345.0232725206265
 30
50.00784729514272
  0
VERTEX
  5
BE
330
AE
100
AcDbEntity
  8
000__\U+6742\U+9879
100
AcDbVertex
100
AcDb2dVertex
 10
-288.2191713952653
 20
344.9986450577137
 30
50.00784729514272
  0
VERTEX
  5
BF
330
AE
100
AcDbEntity
  8
000__\U+6742\U+9879
100
AcDbVertex
100
AcDb2dVertex
 10
-288.2885637528264
 20
344.9721621272888
 30
50.00784729514272
  0
VERTEX
  5
C0
330
AE
100
AcDbEntity
  8
000__\U+6742\U+9879
100
AcDbVertex
100
AcDb2dVertex
 10
-288.35763155078
 20
344.9438197260474
 30
50.00784729514272
  0
VERTEX
  5
C1
330
AE
100
AcDbEntity
  8
000__\U+6742\U+9879
100
AcDbVertex
100
AcDb2dVertex
 10
-288.4263026657454
 20
344.9136173873717
 30
50.00784729514272
  0
VERTEX
  5
C2
330
AE
100
AcDbEntity
  8
000__\U+6742\U+9879
100
AcDbVertex
100
AcDb2dVertex
 10
-288.4945043397627
 20
344.8815582721704
 30
50.00784729514272
  0
VERTEX
  5
C3
330
AE
100
AcDbEntity
  8
000__\U+6742\U+9879
100
AcDbVertex
100
AcDb2dVertex
 10
-288.5621634033088
 20
344.8476492445907
 30
50.00784729514272
  0
VERTEX
  5
C4
330
AE
100
AcDbEntity
  8
000__\U+6742\U+9879
100
AcDbVertex
100
AcDb2dVertex
 10
-288.6292065064951
 20
344.8119009315749
 30
50.00784729514272
  0
VERTEX
  5
C5
330
AE
100
AcDbEntity
  8
000__\U+6742\U+9879
100
AcDbVertex
100
AcDb2dVertex
 10
-288.6955603570982
 20
344.7743277653437
 30
50.00784729514272
  0
VERTEX
  5
C6
330
AE
100
AcDbEntity
  8
000__\U+6742\U+9879
100
AcDbVertex
100
AcDb2dVertex
 10
-288.7611519639737
 20
344.7349480080227
 30
50.00784729514272
  0
VERTEX
  5
C7
330
AE
100
AcDbEntity
  8
000__\U+6742\U+9879
100
AcDbVertex
100
AcDb2dVertex
 10
-288.8259088842962
 20
344.6937837577574
 30
50.00784729514272
  0
VERTEX
  5
C8
330
AE
100
AcDbEntity
  8
000__\U+6742\U+9879
100
AcDbVertex
100
AcDb2dVertex
 10
-288.8897594729983
 20
344.6508609358279
 30
50.00784729514272
  0
VERTEX
  5
C9
330
AE
100
AcDbEntity
  8
000__\U+6742\U+9879
100
AcDbVertex
100
AcDb2dVertex
 10
-288.9526331327092
 20
344.6062092544284
 30
50.00784729514272
  0
VERTEX
  5
CA
330
AE
100
AcDbEntity
  8
000__\U+6742\U+9879
100
AcDbVertex
100
AcDb2dVertex
 10
-289.014460562453
 20
344.5598621649558
 30
50.00784729514272
  0
VERTEX
  5
CB
330
AE
100
AcDbEntity
  8
000__\U+6742\U+9879
100
AcDbVertex
100
AcDb2dVertex
 10
-289.0751740033384
 20
344.5118567868259
 30
50.00784729514272
  0
VERTEX
  5
CC
330
AE
100
AcDbEntity
  8
000__\U+6742\U+9879
100
AcDbVertex
100
AcDb2dVertex
 10
-289.1347074794692
 20
344.4622338170249
 30
50.00784729514272
  0
VERTEX
  5
CD
330
AE
100
AcDbEntity
  8
000__\U+6742\U+9879
100
AcDbVertex
100
AcDb2dVertex
 10
-289.1929970323174
 20
344.4110374207788
 30
50.00784729514272
  0
VERTEX
  5
CE
330
AE
100
AcDbEntity
  8
000__\U+6742\U+9879
100
AcDbVertex
100
AcDb2dVertex
 10
-289.2499809468428
 20
344.3583151039148
 30
50.00784729514272
  0
VERTEX
  5
CF
330
AE
100
AcDbEntity
  8
000__\U+6742\U+9879
100
AcDbVertex
100
AcDb2dVertex
 10
-289.3055999677004
 20
344.3041175676611
 30
50.00784729514272
  0
VERTEX
  5
D0
330
AE
100
AcDbEntity
  8
000__\U+6742\U+9879
100
AcDbVertex
100
AcDb2dVertex
 10
-289.359797503954
 20
344.2484985468035
 30
50.00784729514272
  0
VERTEX
  5
D1
330
AE
100
AcDbEntity
  8
000__\U+6742\U+9879
100
AcDbVertex
100
AcDb2dVertex
 10
-289.412519820818
 20
344.1915146322781
 30
50.00784729514272
  0
VERTEX
  5
D2
330
AE
100
AcDbEntity
  8
000__\U+6742\U+9879
100
AcDbVertex
100
AcDb2dVertex
 10
-289.4637162170642
 20
344.13322507943
 30
50.00784729514272
  0
VERTEX
  5
D3
330
AE
100
AcDbEntity
  8
000__\U+6742\U+9879
100
AcDbVertex
100
AcDb2dVertex
 10
-289.5133391868653
 20
344.0736916032991
 30
50.00784729514272
  0
VERTEX
  5
D4
330
AE
100
AcDbEntity
  8
000__\U+6742\U+9879
100
AcDbVertex
100
AcDb2dVertex
 10
-289.5613445649951
 20
344.0129781624136
 30
50.00784729514272
  0
VERTEX
  5
D5
330
AE
100
AcDbEntity
  8
000__\U+6742\U+9879
100
AcDbVertex
100
AcDb2dVertex
 10
-289.6076916544678
 20
343.9511507326698
 30
50.00784729514272
  0
VERTEX
  5
D6
330
AE
100
AcDbEntity
  8
000__\U+6742\U+9879
100
AcDbVertex
100
AcDb2dVertex
 10
-289.6523433358672
 20
343.8882770729589
 30
50.00784729514272
  0
VERTEX
  5
D7
330
AE
100
AcDbEntity
  8
000__\U+6742\U+9879
100
AcDbVertex
100
AcDb2dVertex
 10
-289.6952661577967
 20
343.8244264842569
 30
50.00784729514272
  0
VERTEX
  5
D8
330
AE
100
AcDbEntity
  8
000__\U+6742\U+9879
100
AcDbVertex
100
AcDb2dVertex
 10
-289.7364304080621
 20
343.7596695639344
 30
50.00784729514272
  0
VERTEX
  5
D9
330
AE
100
AcDbEntity
  8
000__\U+6742\U+9879
100
AcDbVertex
100
AcDb2dVertex
 10
-289.7758101653831
 20
343.6940779570589
 30
50.00784729514272
  0
VERTEX
  5
DA
330
AE
100
AcDbEntity
  8
000__\U+6742\U+9879
100
AcDbVertex
100
AcDb2dVertex
 10
-289.8133833316142
 20
343.6277241064558
 30
50.00784729514272
  0
VERTEX
  5
DB
330
AE
100
AcDbEntity
  8
000__\U+6742\U+9879
100
AcDbVertex
100
AcDb2dVertex
 10
-289.8491316446301
 20
343.5606810032695
 30
50.00784729514272
  0
VERTEX
  5
DC
330
AE
100
AcDbEntity
  8
000__\U+6742\U+9879
100
AcDbVertex
100
AcDb2dVertex
 10
-289.8830406722097
 20
343.4930219397233
 30
50.00784729514272
  0
VERTEX
  5
DD
330
AE
100
AcDbEntity
  8
000__\U+6742\U+9879
100
AcDbVertex
100
AcDb2dVertex
 10
-289.9150997874111
 20
343.424820265706
 30
50.00784729514272
  0
VERTEX
  5
DE
330
AE
100
AcDbEntity
  8
000__\U+6742\U+9879
100
AcDbVertex
100
AcDb2dVertex
 10
-289.9453021260869
 20
343.3561491507406
 30
50.00784729514272
  0
VERTEX
  5
DF
330
AE
100
AcDbEntity
  8
000__\U+6742\U+9879
100
AcDbVertex
100
AcDb2dVertex
 10
-289.9736445273281
 20
343.2870813527871
 30
50.00784729514272
  0
VERTEX
  5
E0
330
AE
100
AcDbEntity
  8
000__\U+6742\U+9879
100
AcDbVertex
100
AcDb2dVertex
 10
-290.000127457753
 20
343.217688995226
 30
50.00784729514272
  0
VERTEX
  5
E1
330
AE
100
AcDbEntity
  8
000__\U+6742\U+9879
100
AcDbVertex
100
AcDb2dVertex
 10
-290.0247549206657
 20
343.1480433532473
 30
50.00784729514272
  0
VERTEX
  5
E2
330
AE
100
AcDbEntity
  8
000__\U+6742\U+9879
100
AcDbVertex
100
AcDb2dVertex
 10
-290.047534351208
 20
343.0782146507397
 30
50.00784729514272
  0
VERTEX
  5
E3
330
AE
100
AcDbEntity
  8
000__\U+6742\U+9879
100
AcDbVertex
100
AcDb2dVertex
 10
-290.0684764987018
 20
343.0082718686376
 30
50.00784729514272
  0
VERTEX
  5
E4
330
AE
100
AcDbEntity
  8
000__\U+6742\U+9879
100
AcDbVertex
100
AcDb2dVertex
 10
-290.0875952974462
 20
342.9382825655471
 30
50.00784729514272
  0
VERTEX
  5
E5
330
AE
100
AcDbEntity
  8
000__\U+6742\U+9879
100
AcDbVertex
100
AcDb2dVertex
 10
-290.1049077272689
 20
342.8683127113209
 30
50.00784729514272
  0
VERTEX
  5
E6
330
AE
100
AcDbEntity
  8
000__\U+6742\U+9879
100
AcDbVertex
100
AcDb2dVertex
 10
-290.1204336651693
 20
342.7984265341183
 30
50.00784729514272
  0
VERTEX
  5
E7
330
AE
100
AcDbEntity
  8
000__\U+6742\U+9879
100
AcDbVertex
100
AcDb2dVertex
 10
-290.1341957293905
 20
342.728686381338
 30
50.00784729514272
  0
VERTEX
  5
E8
330
AE
100
AcDbEntity
  8
000__\U+6742\U+9879
100
AcDbVertex
100
AcDb2dVertex
 10
-290.1462191172642
 20
342.6591525946764
 30
50.00784729514272
  0
VERTEX
  5
E9
330
AE
100
AcDbEntity
  8
000__\U+6742\U+9879
100
AcDbVertex
100
AcDb2dVertex
 10
-290.1565314381455
 20
342.5898833994325
 30
50.00784729514272
  0
VERTEX
  5
EA
330
AE
100
AcDbEntity
  8
000__\U+6742\U+9879
100
AcDbVertex
100
AcDb2dVertex
 10
-290.165162542727
 20
342.5209348080532
 30
50.00784729514272
  0
VERTEX
  5
EB
330
AE
100
AcDbEntity
  8
000__\U+6742\U+9879
100
AcDbVertex
100
AcDb2dVertex
 10
-290.1721443499794
 20
342.4523605377947
 30
50.00784729514272
  0
VERTEX
  5
EC
330
AE
100
AcDbEntity
  8
000__\U+6742\U+9879
100
AcDbVertex
100
AcDb2dVertex
 10
-290.1775106729081
 20
342.3842119422698
 30
50.00784729514272
  0
VERTEX
  5
ED
330
AE
100
AcDbEntity
  8
000__\U+6742\U+9879
100
AcDbVertex
100
AcDb2dVertex
 10
-290.1812970442578
 20
342.3165379565475
 30
50.00784729514272
  0
VERTEX
  5
EE
330
AE
100
AcDbEntity
  8
000__\U+6742\U+9879
100
AcDbVertex
100
AcDb2dVertex
 10
-290.1835405432215
 20
342.2493850553864
 30
50.00784729514272
  0
VERTEX
  5
EF
330
AE
100
AcDbEntity
  8
000__\U+6742\U+9879
100
AcDbVertex
100
AcDb2dVertex
 10
-290.1842796241408
 20
342.1827972241015
 30
50.00784729514272
  0
SEQEND
  5
F0
330
AE
100
AcDbEntity
  8
000__\U+6742\U+9879
  0
POLYLINE
  5
F1
330
1F
100
AcDbEntity
  8
000__\U+6742\U+9879
100
AcDb2dPolyline
 66
     1
 10
0.0
 20
0.0
 30
50.00784729514272
  0
VERTEX
  5
F2
330
F1
100
AcDbEntity
  8
000__\U+6742\U+9879
100
AcDbVertex
100
AcDb2dVertex
 10
-290.1842796241408
 20
342.1827972241015
 30
50.00784729514272
  0
VERTEX
  5
F3
330
F1
100
AcDbEntity
  8
000__\U+6742\U+9879
100
AcDbVertex
100
AcDb2dVertex
 10
-290.1842796241409
 20
340.3643222100307
 30
50.00784729514272
  0
SEQEND
  5
F4
330
F1
100
AcDbEntity
  8
000__\U+6742\U+9879
  0
ARC
  5
F5
330
1F
100
AcDbEntity
  8
000__\U+6742\U+9879
100
AcDbCircle
 10
296.1842796241421
 20
340.3643229031886
 30
-50.00784729514272
 40
6.000000000001234
210
0.0
220
0.0
230
-1.0
100
AcDbArc
 50
180.0000066191705
 51
191.0206075989472
  0
ARC
  5
F6
330
1F
100
AcDbEntity
  8
000__\U+6742\U+9879
100
AcDbCircle
 10
296.1842796241409
 20
340.3643229031886
 30
-50.00784729514272
 40
5.99999999999999
210
0.0
220
0.0
230
-1.0
100
AcDbArc
 50
191.0206075989485
 51
269.9999867273428
  0
LINE
  5
F7
330
1F
100
AcDbEntity
  8
000__\U+6742\U+9879
100
AcDbLine
 10
-296.1842782342314
 20
334.3643229031888
 30
50.00784729514272
 11
-318.1842762009459
 21
334.3643229030731
 31
50.00784729514274
  0
POLYLINE
  5
F8
330
1F
100
AcDbEntity
  8
000__\U+6742\U+9879
100
AcDb2dPolyline
 66
     1
 10
0.0
 20
0.0
 30
50.00784729514274
  0
VERTEX
  5
F9
330
F8
100
AcDbEntity
  8
000__\U+6742\U+9879
100
AcDbVertex
100
AcDb2dVertex
 10
-318.1842762009459
 20
334.3643229030731
 30
50.00784729514274
  0
VERTEX
  5
FA
330
F8
100
AcDbEntity
  8
000__\U+6742\U+9879
100
AcDbVertex
100
AcDb2dVertex
 10
-318.2508640322301
 20
334.3635838221527
 30
50.00784729514274
  0
VERTEX
  5
FB
330
F8
100
AcDbEntity
  8
000__\U+6742\U+9879
100
AcDbVertex
100
AcDb2dVertex
 10
-318.3180169333906
 20
334.3613403231879
 30
50.00784729514274
  0
VERTEX
  5
FC
330
F8
100
AcDbEntity
  8
000__\U+6742\U+9879
100
AcDbVertex
100
AcDb2dVertex
 10
-318.3856909191122
 20
334.3575539518373
 30
50.00784729514274
  0
VERTEX
  5
FD
330
F8
100
AcDbEntity
  8
000__\U+6742\U+9879
100
AcDbVertex
100
AcDb2dVertex
 10
-318.4538395146364
 20
334.3521876289074
 30
50.00784729514274
  0
VERTEX
  5
FE
330
F8
100
AcDbEntity
  8
000__\U+6742\U+9879
100
AcDbVertex
100
AcDb2dVertex
 10
-318.5224137848941
 20
334.345205821654
 30
50.00784729514274
  0
VERTEX
  5
FF
330
F8
100
AcDbEntity
  8
000__\U+6742\U+9879
100
AcDbVertex
100
AcDb2dVertex
 10
-318.5913623762727
 20
334.3365747170715
 30
50.00784729514274
  0
VERTEX
  5
100
330
F8
100
AcDbEntity
  8
000__\U+6742\U+9879
100
AcDbVertex
100
AcDb2dVertex
 10
-318.6606315715159
 20
334.3262623961894
 30
50.00784729514274
  0
VERTEX
  5
101
330
F8
100
AcDbEntity
  8
000__\U+6742\U+9879
100
AcDbVertex
100
AcDb2dVertex
 10
-318.7301653581766
 20
334.3142390083146
 30
50.00784729514274
  0
VERTEX
  5
102
330
F8
100
AcDbEntity
  8
000__\U+6742\U+9879
100
AcDbVertex
100
AcDb2dVertex
 10
-318.7999055109561
 20
334.3004769440926
 30
50.00784729514274
  0
VERTEX
  5
103
330
F8
100
AcDbEntity
  8
000__\U+6742\U+9879
100
AcDbVertex
100
AcDb2dVertex
 10
-318.8697916881578
 20
334.2849510061914
 30
50.00784729514274
  0
VERTEX
  5
104
330
F8
100
AcDbEntity
  8
000__\U+6742\U+9879
100
AcDbVertex
100
AcDb2dVertex
 10
-318.939761542383
 20
334.2676385763677
 30
50.00784729514274
  0
VERTEX
  5
105
330
F8
100
AcDbEntity
  8
000__\U+6742\U+9879
100
AcDbVertex
100
AcDb2dVertex
 10
-319.0097508454726
 20
334.2485197776227
 30
50.00784729514274
  0
VERTEX
  5
106
330
F8
100
AcDbEntity
  8
000__\U+6742\U+9879
100
AcDbVertex
100
AcDb2dVertex
 10
-319.0796936275736
 20
334.2275776301281
 30
50.00784729514274
  0
VERTEX
  5
107
330
F8
100
AcDbEntity
  8
000__\U+6742\U+9879
100
AcDbVertex
100
AcDb2dVertex
 10
-319.1495223300803
 20
334.2047981995852
 30
50.00784729514274
  0
VERTEX
  5
108
330
F8
100
AcDbEntity
  8
000__\U+6742\U+9879
100
AcDbVertex
100
AcDb2dVertex
 10
-319.219167972058
 20
334.1801707366718
 30
50.00784729514274
  0
VERTEX
  5
109
330
F8
100
AcDbEntity
  8
000__\U+6742\U+9879
100
AcDbVertex
100
AcDb2dVertex
 10
-319.2885603296179
 20
334.1536878062461
 30
50.00784729514274
  0
VERTEX
  5
10A
330
F8
100
AcDbEntity
  8
000__\U+6742\U+9879
100
AcDbVertex
100
AcDb2dVertex
 10
-319.3576281275704
 20
334.1253454050043
 30
50.00784729514274
  0
VERTEX
  5
10B
330
F8
100
AcDbEntity
  8
000__\U+6742\U+9879
100
AcDbVertex
100
AcDb2dVertex
 10
-319.4262992425346
 20
334.095143066328
 30
50.00784729514274
  0
VERTEX
  5
10C
330
F8
100
AcDbEntity
  8
000__\U+6742\U+9879
100
AcDbVertex
100
AcDb2dVertex
 10
-319.4945009165507
 20
334.0630839511261
 30
50.00784729514274
  0
VERTEX
  5
10D
330
F8
100
AcDbEntity
  8
000__\U+6742\U+9879
100
AcDbVertex
100
AcDb2dVertex
 10
-319.5621599800958
 20
334.0291749235461
 30
50.00784729514274
  0
VERTEX
  5
10E
330
F8
100
AcDbEntity
  8
000__\U+6742\U+9879
100
AcDbVertex
100
AcDb2dVertex
 10
-319.6292030832809
 20
333.9934266105298
 30
50.00784729514274
  0
VERTEX
  5
10F
330
F8
100
AcDbEntity
  8
000__\U+6742\U+9879
100
AcDbVertex
100
AcDb2dVertex
 10
-319.6955569338829
 20
333.9558534442984
 30
50.00784729514274
  0
VERTEX
  5
110
330
F8
100
AcDbEntity
  8
000__\U+6742\U+9879
100
AcDbVertex
100
AcDb2dVertex
 10
-319.7611485407573
 20
333.9164736869772
 30
50.00784729514274
  0
VERTEX
  5
111
330
F8
100
AcDbEntity
  8
000__\U+6742\U+9879
100
AcDbVertex
100
AcDb2dVertex
 10
-319.8259054610785
 20
333.8753094367116
 30
50.00784729514274
  0
VERTEX
  5
112
330
F8
100
AcDbEntity
  8
000__\U+6742\U+9879
100
AcDbVertex
100
AcDb2dVertex
 10
-319.8897560497794
 20
333.8323866147819
 30
50.00784729514274
  0
VERTEX
  5
113
330
F8
100
AcDbEntity
  8
000__\U+6742\U+9879
100
AcDbVertex
100
AcDb2dVertex
 10
-319.9526297094891
 20
333.7877349333824
 30
50.00784729514274
  0
VERTEX
  5
114
330
F8
100
AcDbEntity
  8
000__\U+6742\U+9879
100
AcDbVertex
100
AcDb2dVertex
 10
-320.0144571392318
 20
333.7413878439096
 30
50.00784729514274
  0
VERTEX
  5
115
330
F8
100
AcDbEntity
  8
000__\U+6742\U+9879
100
AcDbVertex
100
AcDb2dVertex
 10
-320.0751705801161
 20
333.6933824657797
 30
50.00784729514274
  0
VERTEX
  5
116
330
F8
100
AcDbEntity
  8
000__\U+6742\U+9879
100
AcDbVertex
100
AcDb2dVertex
 10
-320.1347040562458
 20
333.6437594959787
 30
50.00784729514274
  0
VERTEX
  5
117
330
F8
100
AcDbEntity
  8
000__\U+6742\U+9879
100
AcDbVertex
100
AcDb2dVertex
 10
-320.1929936090927
 20
333.5925630997326
 30
50.00784729514274
  0
VERTEX
  5
118
330
F8
100
AcDbEntity
  8
000__\U+6742\U+9879
100
AcDbVertex
100
AcDb2dVertex
 10
-320.249977523617
 20
333.5398407828687
 30
50.00784729514274
  0
VERTEX
  5
119
330
F8
100
AcDbEntity
  8
000__\U+6742\U+9879
100
AcDbVertex
100
AcDb2dVertex
 10
-320.3055965444735
 20
333.4856432466152
 30
50.00784729514274
  0
VERTEX
  5
11A
330
F8
100
AcDbEntity
  8
000__\U+6742\U+9879
100
AcDbVertex
100
AcDb2dVertex
 10
-320.3597940807261
 20
333.4300242257578
 30
50.00784729514274
  0
VERTEX
  5
11B
330
F8
100
AcDbEntity
  8
000__\U+6742\U+9879
100
AcDbVertex
100
AcDb2dVertex
 10
-320.412516397589
 20
333.3730403112326
 30
50.00784729514274
  0
VERTEX
  5
11C
330
F8
100
AcDbEntity
  8
000__\U+6742\U+9879
100
AcDbVertex
100
AcDb2dVertex
 10
-320.4637127938342
 20
333.3147507583848
 30
50.00784729514274
  0
VERTEX
  5
11D
330
F8
100
AcDbEntity
  8
000__\U+6742\U+9879
100
AcDbVertex
100
AcDb2dVertex
 10
-320.5133357636342
 20
333.2552172822544
 30
50.00784729514274
  0
VERTEX
  5
11E
330
F8
100
AcDbEntity
  8
000__\U+6742\U+9879
100
AcDbVertex
100
AcDb2dVertex
 10
-320.5613411417631
 20
333.1945038413693
 30
50.00784729514274
  0
VERTEX
  5
11F
330
F8
100
AcDbEntity
  8
000__\U+6742\U+9879
100
AcDbVertex
100
AcDb2dVertex
 10
-320.6076882312348
 20
333.1326764116259
 30
50.00784729514274
  0
VERTEX
  5
120
330
F8
100
AcDbEntity
  8
000__\U+6742\U+9879
100
AcDbVertex
100
AcDb2dVertex
 10
-320.6523399126334
 20
333.0698027519154
 30
50.00784729514274
  0
VERTEX
  5
121
330
F8
100
AcDbEntity
  8
000__\U+6742\U+9879
100
AcDbVertex
100
AcDb2dVertex
 10
-320.695262734562
 20
333.0059521632138
 30
50.00784729514274
  0
VERTEX
  5
122
330
F8
100
AcDbEntity
  8
000__\U+6742\U+9879
100
AcDbVertex
100
AcDb2dVertex
 10
-320.7364269848265
 20
332.9411952428919
 30
50.00784729514274
  0
VERTEX
  5
123
330
F8
100
AcDbEntity
  8
000__\U+6742\U+9879
100
AcDbVertex
100
AcDb2dVertex
 10
-320.7758067421466
 20
332.8756036360169
 30
50.00784729514274
  0
VERTEX
  5
124
330
F8
100
AcDbEntity
  8
000__\U+6742\U+9879
100
AcDbVertex
100
AcDb2dVertex
 10
-320.813379908377
 20
332.8092497854141
 30
50.00784729514274
  0
VERTEX
  5
125
330
F8
100
AcDbEntity
  8
000__\U+6742\U+9879
100
AcDbVertex
100
AcDb2dVertex
 10
-320.8491282213922
 20
332.7422066822285
 30
50.00784729514274
  0
VERTEX
  5
126
330
F8
100
AcDbEntity
  8
000__\U+6742\U+9879
100
AcDbVertex
100
AcDb2dVertex
 10
-320.883037248971
 20
332.6745476186828
 30
50.00784729514274
  0
VERTEX
  5
127
330
F8
100
AcDbEntity
  8
000__\U+6742\U+9879
100
AcDbVertex
100
AcDb2dVertex
 10
-320.9150963641718
 20
332.6063459446663
 30
50.00784729514274
  0
VERTEX
  5
128
330
F8
100
AcDbEntity
  8
000__\U+6742\U+9879
100
AcDbVertex
100
AcDb2dVertex
 10
-320.945298702847
 20
332.5376748297015
 30
50.00784729514274
  0
VERTEX
  5
129
330
F8
100
AcDbEntity
  8
000__\U+6742\U+9879
100
AcDbVertex
100
AcDb2dVertex
 10
-320.9736411040877
 20
332.4686070317485
 30
50.00784729514274
  0
VERTEX
  5
12A
330
F8
100
AcDbEntity
  8
000__\U+6742\U+9879
100
AcDbVertex
100
AcDb2dVertex
 10
-321.0001240345122
 20
332.3992146741882
 30
50.00784729514274
  0
VERTEX
  5
12B
330
F8
100
AcDbEntity
  8
000__\U+6742\U+9879
100
AcDbVertex
100
AcDb2dVertex
 10
-321.0247514974245
 20
332.3295690322101
 30
50.00784729514274
  0
VERTEX
  5
12C
330
F8
100
AcDbEntity
  8
000__\U+6742\U+9879
100
AcDbVertex
100
AcDb2dVertex
 10
-321.0475309279662
 20
332.2597403297031
 30
50.00784729514274
  0
VERTEX
  5
12D
330
F8
100
AcDbEntity
  8
000__\U+6742\U+9879
100
AcDbVertex
100
AcDb2dVertex
 10
-321.0684730754597
 20
332.1897975476017
 30
50.00784729514274
  0
VERTEX
  5
12E
330
F8
100
AcDbEntity
  8
000__\U+6742\U+9879
100
AcDbVertex
100
AcDb2dVertex
 10
-321.0875918742036
 20
332.1198082445118
 30
50.00784729514274
  0
VERTEX
  5
12F
330
F8
100
AcDbEntity
  8
000__\U+6742\U+9879
100
AcDbVertex
100
AcDb2dVertex
 10
-321.1049043040261
 20
332.0498383902863
 30
50.00784729514274
  0
VERTEX
  5
130
330
F8
100
AcDbEntity
  8
000__\U+6742\U+9879
100
AcDbVertex
100
AcDb2dVertex
 10
-321.1204302419261
 20
331.9799522130844
 30
50.00784729514274
  0
VERTEX
  5
131
330
F8
100
AcDbEntity
  8
000__\U+6742\U+9879
100
AcDbVertex
100
AcDb2dVertex
 10
-321.134192306147
 20
331.9102120603046
 30
50.00784729514274
  0
VERTEX
  5
132
330
F8
100
AcDbEntity
  8
000__\U+6742\U+9879
100
AcDbVertex
100
AcDb2dVertex
 10
-321.1462156940207
 20
331.8406782736437
 30
50.00784729514274
  0
VERTEX
  5
133
330
F8
100
AcDbEntity
  8
000__\U+6742\U+9879
100
AcDbVertex
100
AcDb2dVertex
 10
-321.1565280149017
 20
331.7714090784004
 30
50.00784729514274
  0
VERTEX
  5
134
330
F8
100
AcDbEntity
  8
000__\U+6742\U+9879
100
AcDbVertex
100
AcDb2dVertex
 10
-321.165159119483
 20
331.7024604870217
 30
50.00784729514274
  0
VERTEX
  5
135
330
F8
100
AcDbEntity
  8
000__\U+6742\U+9879
100
AcDbVertex
100
AcDb2dVertex
 10
-321.1721409267353
 20
331.6338862167638
 30
50.00784729514274
  0
VERTEX
  5
136
330
F8
100
AcDbEntity
  8
000__\U+6742\U+9879
100
AcDbVertex
100
AcDb2dVertex
 10
-321.177507249664
 20
331.5657376212396
 30
50.00784729514274
  0
VERTEX
  5
137
330
F8
100
AcDbEntity
  8
000__\U+6742\U+9879
100
AcDbVertex
100
AcDb2dVertex
 10
-321.1812936210135
 20
331.4980636355179
 30
50.00784729514274
  0
VERTEX
  5
138
330
F8
100
AcDbEntity
  8
000__\U+6742\U+9879
100
AcDbVertex
100
AcDb2dVertex
 10
-321.1835371199772
 20
331.4309107343573
 30
50.00784729514274
  0
VERTEX
  5
139
330
F8
100
AcDbEntity
  8
000__\U+6742\U+9879
100
AcDbVertex
100
AcDb2dVertex
 10
-321.1842762008964
 20
331.3643229030731
 30
50.00784729514274
  0
SEQEND
  5
13A
330
F8
100
AcDbEntity
  8
000__\U+6742\U+9879
  0
LINE
  5
13B
330
1F
100
AcDbEntity
  8
000__\U+6742\U+9879
100
AcDbLine
 10
-321.1842762008964
 20
331.3643229030731
 30
50.00784729514272
 11
-321.1842762008964
 21
75.3643237643864
 31
50.00784729514273
  0
POLYLINE
  5
13C
330
1F
100
AcDbEntity
  8
000__\U+6742\U+9879
100
AcDb2dPolyline
 66
     1
 10
0.0
 20
0.0
 30
50.00784729514273
  0
VERTEX
  5
13D
330
13C
100
AcDbEntity
  8
000__\U+6742\U+9879
100
AcDbVertex
100
AcDb2dVertex
 10
-321.1842762008964
 20
75.3643237643864
 30
50.00784729514273
  0
VERTEX
  5
13E
330
13C
100
AcDbEntity
  8
000__\U+6742\U+9879
100
AcDbVertex
100
AcDb2dVertex
 10
-321.1835371199771
 20
75.29773593310213
 30
50.00784729514273
  0
VERTEX
  5
13F
330
13C
100
AcDbEntity
  8
000__\U+6742\U+9879
100
AcDbVertex
100
AcDb2dVertex
 10
-321.1812936210135
 20
75.23058303194156
 30
50.00784729514273
  0
VERTEX
  5
140
330
13C
100
AcDbEntity
  8
000__\U+6742\U+9879
100
AcDbVertex
100
AcDb2dVertex
 10
-321.177507249664
 20
75.16290904621991
 30
50.00784729514273
  0
VERTEX
  5
141
330
13C
100
AcDbEntity
  8
000__\U+6742\U+9879
100
AcDbVertex
100
AcDb2dVertex
 10
-321.1721409267352
 20
75.09476045069562
 30
50.00784729514273
  0
VERTEX
  5
142
330
13C
100
AcDbEntity
  8
000__\U+6742\U+9879
100
AcDbVertex
100
AcDb2dVertex
 10
-321.1651591194828
 20
75.02618618043773
 30
50.00784729514273
  0
VERTEX
  5
143
330
13C
100
AcDbEntity
  8
000__\U+6742\U+9879
100
AcDbVertex
100
AcDb2dVertex
 10
-321.1565280149015
 20
74.95723758905902
 30
50.00784729514273
  0
VERTEX
  5
144
330
13C
100
AcDbEntity
  8
000__\U+6742\U+9879
100
AcDbVertex
100
AcDb2dVertex
 10
-321.1462156940205
 20
74.8879683938158
 30
50.00784729514273
  0
VERTEX
  5
145
330
13C
100
AcDbEntity
  8
000__\U+6742\U+9879
100
AcDbVertex
100
AcDb2dVertex
 10
-321.1341923061469
 20
74.81843460715481
 30
50.00784729514273
  0
VERTEX
  5
146
330
13C
100
AcDbEntity
  8
000__\U+6742\U+9879
100
AcDbVertex
100
AcDb2dVertex
 10
-321.120430241926
 20
74.74869445437514
 30
50.00784729514273
  0
VERTEX
  5
147
330
13C
100
AcDbEntity
  8
000__\U+6742\U+9879
100
AcDbVertex
100
AcDb2dVertex
 10
-321.104904304026
 20
74.67880827717322
 30
50.00784729514273
  0
VERTEX
  5
148
330
13C
100
AcDbEntity
  8
000__\U+6742\U+9879
100
AcDbVertex
100
AcDb2dVertex
 10
-321.0875918742035
 20
74.60883842294767
 30
50.00784729514273
  0
VERTEX
  5
149
330
13C
100
AcDbEntity
  8
000__\U+6742\U+9879
100
AcDbVertex
100
AcDb2dVertex
 10
-321.0684730754595
 20
74.53884911985779
 30
50.00784729514273
  0
VERTEX
  5
14A
330
13C
100
AcDbEntity
  8
000__\U+6742\U+9879
100
AcDbVertex
100
AcDb2dVertex
 10
-321.0475309279661
 20
74.46890633775645
 30
50.00784729514273
  0
VERTEX
  5
14B
330
13C
100
AcDbEntity
  8
000__\U+6742\U+9879
100
AcDbVertex
100
AcDb2dVertex
 10
-321.0247514974243
 20
74.39907763524938
 30
50.00784729514273
  0
VERTEX
  5
14C
330
13C
100
AcDbEntity
  8
000__\U+6742\U+9879
100
AcDbVertex
100
AcDb2dVertex
 10
-321.000124034512
 20
74.32943199327138
 30
50.00784729514273
  0
VERTEX
  5
14D
330
13C
100
AcDbEntity
  8
000__\U+6742\U+9879
100
AcDbVertex
100
AcDb2dVertex
 10
-320.9736411040876
 20
74.26003963571092
 30
50.00784729514273
  0
VERTEX
  5
14E
330
13C
100
AcDbEntity
  8
000__\U+6742\U+9879
100
AcDbVertex
100
AcDb2dVertex
 10
-320.9452987028469
 20
74.19097183775801
 30
50.00784729514273
  0
VERTEX
  5
14F
330
13C
100
AcDbEntity
  8
000__\U+6742\U+9879
100
AcDbVertex
100
AcDb2dVertex
 10
-320.9150963641717
 20
74.12230072279327
 30
50.00784729514273
  0
VERTEX
  5
150
330
13C
100
AcDbEntity
  8
000__\U+6742\U+9879
100
AcDbVertex
100
AcDb2dVertex
 10
-320.8830372489709
 20
74.05409904877664
 30
50.00784729514273
  0
VERTEX
  5
151
330
13C
100
AcDbEntity
  8
000__\U+6742\U+9879
100
AcDbVertex
100
AcDb2dVertex
 10
-320.8491282213921
 20
73.98643998523103
 30
50.00784729514273
  0
VERTEX
  5
152
330
13C
100
AcDbEntity
  8
000__\U+6742\U+9879
100
AcDbVertex
100
AcDb2dVertex
 10
-320.8133799083769
 20
73.91939688204539
 30
50.00784729514273
  0
VERTEX
  5
153
330
13C
100
AcDbEntity
  8
000__\U+6742\U+9879
100
AcDbVertex
100
AcDb2dVertex
 10
-320.7758067421466
 20
73.85304303144271
 30
50.00784729514273
  0
VERTEX
  5
154
330
13C
100
AcDbEntity
  8
000__\U+6742\U+9879
100
AcDbVertex
100
AcDb2dVertex
 10
-320.7364269848264
 20
73.78745142456778
 30
50.00784729514273
  0
VERTEX
  5
155
330
13C
100
AcDbEntity
  8
000__\U+6742\U+9879
100
AcDbVertex
100
AcDb2dVertex
 10
-320.6952627345619
 20
73.72269450424578
 30
50.00784729514273
  0
VERTEX
  5
156
330
13C
100
AcDbEntity
  8
000__\U+6742\U+9879
100
AcDbVertex
100
AcDb2dVertex
 10
-320.6523399126333
 20
73.65884391554418
 30
50.00784729514273
  0
VERTEX
  5
157
330
13C
100
AcDbEntity
  8
000__\U+6742\U+9879
100
AcDbVertex
100
AcDb2dVertex
 10
-320.6076882312347
 20
73.59597025583373
 30
50.00784729514273
  0
VERTEX
  5
158
330
13C
100
AcDbEntity
  8
000__\U+6742\U+9879
100
AcDbVertex
100
AcDb2dVertex
 10
-320.561341141763
 20
73.53414282609037
 30
50.00784729514273
  0
VERTEX
  5
159
330
13C
100
AcDbEntity
  8
000__\U+6742\U+9879
100
AcDbVertex
100
AcDb2dVertex
 10
-320.5133357636342
 20
73.47342938520524
 30
50.00784729514273
  0
VERTEX
  5
15A
330
13C
100
AcDbEntity
  8
000__\U+6742\U+9879
100
AcDbVertex
100
AcDb2dVertex
 10
-320.4637127938341
 20
73.41389590907475
 30
50.00784729514273
  0
VERTEX
  5
15B
330
13C
100
AcDbEntity
  8
000__\U+6742\U+9879
100
AcDbVertex
100
AcDb2dVertex
 10
-320.4125163975889
 20
73.35560635622699
 30
50.00784729514273
  0
VERTEX
  5
15C
330
13C
100
AcDbEntity
  8
000__\U+6742\U+9879
100
AcDbVertex
100
AcDb2dVertex
 10
-320.359794080726
 20
73.2986224417018
 30
50.00784729514273
  0
VERTEX
  5
15D
330
13C
100
AcDbEntity
  8
000__\U+6742\U+9879
100
AcDbVertex
100
AcDb2dVertex
 10
-320.3055965444734
 20
73.24300342084437
 30
50.00784729514273
  0
VERTEX
  5
15E
330
13C
100
AcDbEntity
  8
000__\U+6742\U+9879
100
AcDbVertex
100
AcDb2dVertex
 10
-320.249977523617
 20
73.18880588459093
 30
50.00784729514273
  0
VERTEX
  5
15F
330
13C
100
AcDbEntity
  8
000__\U+6742\U+9879
100
AcDbVertex
100
AcDb2dVertex
 10
-320.1929936090927
 20
73.13608356772706
 30
50.00784729514273
  0
VERTEX
  5
160
330
13C
100
AcDbEntity
  8
000__\U+6742\U+9879
100
AcDbVertex
100
AcDb2dVertex
 10
-320.1347040562457
 20
73.0848871714809
 30
50.00784729514273
  0
VERTEX
  5
161
330
13C
100
AcDbEntity
  8
000__\U+6742\U+9879
100
AcDbVertex
100
AcDb2dVertex
 10
-320.0751705801161
 20
73.0352642016799
 30
50.00784729514273
  0
VERTEX
  5
162
330
13C
100
AcDbEntity
  8
000__\U+6742\U+9879
100
AcDbVertex
100
AcDb2dVertex
 10
-320.0144571392316
 20
72.98725882355006
 30
50.00784729514273
  0
VERTEX
  5
163
330
13C
100
AcDbEntity
  8
000__\U+6742\U+9879
100
AcDbVertex
100
AcDb2dVertex
 10
-319.952629709489
 20
72.94091173407728
 30
50.00784729514273
  0
VERTEX
  5
164
330
13C
100
AcDbEntity
  8
000__\U+6742\U+9879
100
AcDbVertex
100
AcDb2dVertex
 10
-319.8897560497794
 20
72.89626005267773
 30
50.00784729514273
  0
VERTEX
  5
165
330
13C
100
AcDbEntity
  8
000__\U+6742\U+9879
100
AcDbVertex
100
AcDb2dVertex
 10
-319.8259054610785
 20
72.85333723074807
 30
50.00784729514273
  0
VERTEX
  5
166
330
13C
100
AcDbEntity
  8
000__\U+6742\U+9879
100
AcDbVertex
100
AcDb2dVertex
 10
-319.7611485407572
 20
72.81217298048254
 30
50.00784729514273
  0
VERTEX
  5
167
330
13C
100
AcDbEntity
  8
000__\U+6742\U+9879
100
AcDbVertex
100
AcDb2dVertex
 10
-319.6955569338829
 20
72.77279322316122
 30
50.00784729514273
  0
VERTEX
  5
168
330
13C
100
AcDbEntity
  8
000__\U+6742\U+9879
100
AcDbVertex
100
AcDb2dVertex
 10
-319.6292030832809
 20
72.73522005692985
 30
50.00784729514273
  0
VERTEX
  5
169
330
13C
100
AcDbEntity
  8
000__\U+6742\U+9879
100
AcDbVertex
100
AcDb2dVertex
 10
-319.5621599800958
 20
72.69947174391353
 30
50.00784729514273
  0
VERTEX
  5
16A
330
13C
100
AcDbEntity
  8
000__\U+6742\U+9879
100
AcDbVertex
100
AcDb2dVertex
 10
-319.4945009165507
 20
72.66556271633348
 30
50.00784729514273
  0
VERTEX
  5
16B
330
13C
100
AcDbEntity
  8
000__\U+6742\U+9879
100
AcDbVertex
100
AcDb2dVertex
 10
-319.4262992425345
 20
72.6335036011316
 30
50.00784729514273
  0
VERTEX
  5
16C
330
13C
100
AcDbEntity
  8
000__\U+6742\U+9879
100
AcDbVertex
100
AcDb2dVertex
 10
-319.3576281275704
 20
72.60330126245535
 30
50.00784729514273
  0
VERTEX
  5
16D
330
13C
100
AcDbEntity
  8
000__\U+6742\U+9879
100
AcDbVertex
100
AcDb2dVertex
 10
-319.2885603296179
 20
72.57495886121346
 30
50.00784729514273
  0
VERTEX
  5
16E
330
13C
100
AcDbEntity
  8
000__\U+6742\U+9879
100
AcDbVertex
100
AcDb2dVertex
 10
-319.2191679720578
 20
72.54847593078787
 30
50.00784729514273
  0
VERTEX
  5
16F
330
13C
100
AcDbEntity
  8
000__\U+6742\U+9879
100
AcDbVertex
100
AcDb2dVertex
 10
-319.1495223300803
 20
72.52384846787442
 30
50.00784729514273
  0
VERTEX
  5
170
330
13C
100
AcDbEntity
  8
000__\U+6742\U+9879
100
AcDbVertex
100
AcDb2dVertex
 10
-319.0796936275736
 20
72.50106903733153
 30
50.00784729514273
  0
VERTEX
  5
171
330
13C
100
AcDbEntity
  8
000__\U+6742\U+9879
100
AcDbVertex
100
AcDb2dVertex
 10
-319.0097508454726
 20
72.4801268898369
 30
50.00784729514273
  0
VERTEX
  5
172
330
13C
100
AcDbEntity
  8
000__\U+6742\U+9879
100
AcDbVertex
100
AcDb2dVertex
 10
-318.9397615423831
 20
72.46100809109177
 30
50.00784729514273
  0
VERTEX
  5
173
330
13C
100
AcDbEntity
  8
000__\U+6742\U+9879
100
AcDbVertex
100
AcDb2dVertex
 10
-318.8697916881578
 20
72.44369566126812
 30
50.00784729514273
  0
VERTEX
  5
174
330
13C
100
AcDbEntity
  8
000__\U+6742\U+9879
100
AcDbVertex
100
AcDb2dVertex
 10
-318.7999055109562
 20
72.42816972336696
 30
50.00784729514273
  0
VERTEX
  5
175
330
13C
100
AcDbEntity
  8
000__\U+6742\U+9879
100
AcDbVertex
100
AcDb2dVertex
 10
-318.7301653581766
 20
72.41440765914489
 30
50.00784729514273
  0
VERTEX
  5
176
330
13C
100
AcDbEntity
  8
000__\U+6742\U+9879
100
AcDbVertex
100
AcDb2dVertex
 10
-318.6606315715159
 20
72.4023842712702
 30
50.00784729514273
  0
VERTEX
  5
177
330
13C
100
AcDbEntity
  8
000__\U+6742\U+9879
100
AcDbVertex
100
AcDb2dVertex
 10
-318.5913623762729
 20
72.39207195038799
 30
50.00784729514273
  0
VERTEX
  5
178
330
13C
100
AcDbEntity
  8
000__\U+6742\U+9879
100
AcDbVertex
100
AcDb2dVertex
 10
-318.5224137848943
 20
72.38344084580545
 30
50.00784729514273
  0
VERTEX
  5
179
330
13C
100
AcDbEntity
  8
000__\U+6742\U+9879
100
AcDbVertex
100
AcDb2dVertex
 10
-318.4538395146365
 20
72.37645903855208
 30
50.00784729514273
  0
VERTEX
  5
17A
330
13C
100
AcDbEntity
  8
000__\U+6742\U+9879
100
AcDbVertex
100
AcDb2dVertex
 10
-318.3856909191122
 20
72.37109271562227
 30
50.00784729514273
  0
VERTEX
  5
17B
330
13C
100
AcDbEntity
  8
000__\U+6742\U+9879
100
AcDbVertex
100
AcDb2dVertex
 10
-318.3180169333907
 20
72.36730634427161
 30
50.00784729514273
  0
VERTEX
  5
17C
330
13C
100
AcDbEntity
  8
000__\U+6742\U+9879
100
AcDbVertex
100
AcDb2dVertex
 10
-318.2508640322301
 20
72.36506284530685
 30
50.00784729514273
  0
VERTEX
  5
17D
330
13C
100
AcDbEntity
  8
000__\U+6742\U+9879
100
AcDbVertex
100
AcDb2dVertex
 10
-318.1842762009459
 20
72.36432376438646
 30
50.00784729514273
  0
SEQEND
  5
17E
330
13C
100
AcDbEntity
  8
000__\U+6742\U+9879
  0
LINE
  5
17F
330
1F
100
AcDbEntity
  8
000__\U+6742\U+9879
100
AcDbLine
 10
-318.1842762009459
 20
72.36432376438646
 30
50.00784729514272
 11
-296.1842782342314
 21
72.36432376427089
 31
50.00784729514272
  0
ARC
  5
180
330
1F
100
AcDbEntity
  8
000__\U+6742\U+9879
100
AcDbCircle
 10
296.1842796241409
 20
66.364323764271
 30
-50.00784729514272
 40
6.000000000000047
210
0.0
220
0.0
230
-1.0
100
AcDbArc
 50
90.00001327265723
 51
179.999993380829
  0
POLYLINE
  5
181
330
1F
100
AcDbEntity
  8
000__\U+6742\U+9879
100
AcDb2dPolyline
 66
     1
 10
0.0
 20
0.0
 30
50.00784729514272
  0
VERTEX
  5
182
330
181
100
AcDbEntity
  8
000__\U+6742\U+9879
100
AcDbVertex
100
AcDb2dVertex
 10
-290.1842796241409
 20
66.36432445742898
 30
50.00784729514272
  0
VERTEX
  5
183
330
181
100
AcDbEntity
  8
000__\U+6742\U+9879
100
AcDbVertex
100
AcDb2dVertex
 10
-290.1842796241408
 20
64.5458494433581
 30
50.00784729514272
  0
SEQEND
  5
184
330
181
100
AcDbEntity
  8
000__\U+6742\U+9879
  0
POLYLINE
  5
185
330
1F
100
AcDbEntity
  8
000__\U+6742\U+9879
100
AcDb2dPolyline
 66
     1
 10
0.0
 20
0.0
 30
50.00784729514272
  0
VERTEX
  5
186
330
185
100
AcDbEntity
  8
000__\U+6742\U+9879
100
AcDbVertex
100
AcDb2dVertex
 10
-290.1842796241408
 20
64.5458494433581
 30
50.00784729514272
  0
VERTEX
  5
187
330
185
100
AcDbEntity
  8
000__\U+6742\U+9879
100
AcDbVertex
100
AcDb2dVertex
 10
-290.1835405432215
 20
64.47926161207329
 30
50.00784729514272
  0
VERTEX
  5
188
330
185
100
AcDbEntity
  8
000__\U+6742\U+9879
100
AcDbVertex
100
AcDb2dVertex
 10
-290.1812970442578
 20
64.41210871091212
 30
50.00784729514272
  0
VERTEX
  5
189
330
185
100
AcDbEntity
  8
000__\U+6742\U+9879
100
AcDbVertex
100
AcDb2dVertex
 10
-290.1775106729081
 20
64.34443472518988
 30
50.00784729514272
  0
VERTEX
  5
18A
330
185
100
AcDbEntity
  8
000__\U+6742\U+9879
100
AcDbVertex
100
AcDb2dVertex
 10
-290.1721443499794
 20
64.27628612966498
 30
50.00784729514272
  0
VERTEX
  5
18B
330
185
100
AcDbEntity
  8
000__\U+6742\U+9879
100
AcDbVertex
100
AcDb2dVertex
 10
-290.165162542727
 20
64.20771185940649
 30
50.00784729514272
  0
VERTEX
  5
18C
330
185
100
AcDbEntity
  8
000__\U+6742\U+9879
100
AcDbVertex
100
AcDb2dVertex
 10
-290.1565314381455
 20
64.13876326802713
 30
50.00784729514272
  0
VERTEX
  5
18D
330
185
100
AcDbEntity
  8
000__\U+6742\U+9879
100
AcDbVertex
100
AcDb2dVertex
 10
-290.1462191172642
 20
64.06949407278329
 30
50.00784729514272
  0
VERTEX
  5
18E
330
185
100
AcDbEntity
  8
000__\U+6742\U+9879
100
AcDbVertex
100
AcDb2dVertex
 10
-290.1341957293905
 20
63.99996028612166
 30
50.00784729514272
  0
VERTEX
  5
18F
330
185
100
AcDbEntity
  8
000__\U+6742\U+9879
100
AcDbVertex
100
AcDb2dVertex
 10
-290.1204336651693
 20
63.93022013334134
 30
50.00784729514272
  0
VERTEX
  5
190
330
185
100
AcDbEntity
  8
000__\U+6742\U+9879
100
AcDbVertex
100
AcDb2dVertex
 10
-290.1049077272689
 20
63.86033395613876
 30
50.00784729514272
  0
VERTEX
  5
191
330
185
100
AcDbEntity
  8
000__\U+6742\U+9879
100
AcDbVertex
100
AcDb2dVertex
 10
-290.0875952974462
 20
63.79036410191254
 30
50.00784729514272
  0
VERTEX
  5
192
330
185
100
AcDbEntity
  8
000__\U+6742\U+9879
100
AcDbVertex
100
AcDb2dVertex
 10
-290.0684764987018
 20
63.72037479882199
 30
50.00784729514272
  0
VERTEX
  5
193
330
185
100
AcDbEntity
  8
000__\U+6742\U+9879
100
AcDbVertex
100
AcDb2dVertex
 10
-290.047534351208
 20
63.65043201672
 30
50.00784729514272
  0
VERTEX
  5
194
330
185
100
AcDbEntity
  8
000__\U+6742\U+9879
100
AcDbVertex
100
AcDb2dVertex
 10
-290.0247549206657
 20
63.58060331421225
 30
50.00784729514272
  0
VERTEX
  5
195
330
185
100
AcDbEntity
  8
000__\U+6742\U+9879
100
AcDbVertex
100
AcDb2dVertex
 10
-290.000127457753
 20
63.5109576722336
 30
50.00784729514272
  0
VERTEX
  5
196
330
185
100
AcDbEntity
  8
000__\U+6742\U+9879
100
AcDbVertex
100
AcDb2dVertex
 10
-289.9736445273281
 20
63.44156531467248
 30
50.00784729514272
  0
VERTEX
  5
197
330
185
100
AcDbEntity
  8
000__\U+6742\U+9879
100
AcDbVertex
100
AcDb2dVertex
 10
-289.9453021260869
 20
63.37249751671894
 30
50.00784729514272
  0
VERTEX
  5
198
330
185
100
AcDbEntity
  8
000__\U+6742\U+9879
100
AcDbVertex
100
AcDb2dVertex
 10
-289.9150997874111
 20
63.30382640175357
 30
50.00784729514272
  0
VERTEX
  5
199
330
185
100
AcDbEntity
  8
000__\U+6742\U+9879
100
AcDbVertex
100
AcDb2dVertex
 10
-289.8830406722097
 20
63.23562472773633
 30
50.00784729514272
  0
VERTEX
  5
19A
330
185
100
AcDbEntity
  8
000__\U+6742\U+9879
100
AcDbVertex
100
AcDb2dVertex
 10
-289.8491316446301
 20
63.1679656641901
 30
50.00784729514272
  0
VERTEX
  5
19B
330
185
100
AcDbEntity
  8
000__\U+6742\U+9879
100
AcDbVertex
100
AcDb2dVertex
 10
-289.8133833316142
 20
63.10092256100389
 30
50.00784729514272
  0
VERTEX
  5
19C
330
185
100
AcDbEntity
  8
000__\U+6742\U+9879
100
AcDbVertex
100
AcDb2dVertex
 10
-289.7758101653831
 20
63.03456871040065
 30
50.00784729514272
  0
VERTEX
  5
19D
330
185
100
AcDbEntity
  8
000__\U+6742\U+9879
100
AcDbVertex
100
AcDb2dVertex
 10
-289.7364304080621
 20
62.96897710352518
 30
50.00784729514272
  0
VERTEX
  5
19E
330
185
100
AcDbEntity
  8
000__\U+6742\U+9879
100
AcDbVertex
100
AcDb2dVertex
 10
-289.6952661577967
 20
62.90422018320268
 30
50.00784729514272
  0
VERTEX
  5
19F
330
185
100
AcDbEntity
  8
000__\U+6742\U+9879
100
AcDbVertex
100
AcDb2dVertex
 10
-289.6523433358672
 20
62.84036959450061
 30
50.00784729514272
  0
VERTEX
  5
1A0
330
185
100
AcDbEntity
  8
000__\U+6742\U+9879
100
AcDbVertex
100
AcDb2dVertex
 10
-289.6076916544678
 20
62.77749593478971
 30
50.00784729514272
  0
VERTEX
  5
1A1
330
185
100
AcDbEntity
  8
000__\U+6742\U+9879
100
AcDbVertex
100
AcDb2dVertex
 10
-289.5613445649951
 20
62.71566850504595
 30
50.00784729514272
  0
VERTEX
  5
1A2
330
185
100
AcDbEntity
  8
000__\U+6742\U+9879
100
AcDbVertex
100
AcDb2dVertex
 10
-289.5133391868653
 20
62.65495506416042
 30
50.00784729514272
  0
VERTEX
  5
1A3
330
185
100
AcDbEntity
  8
000__\U+6742\U+9879
100
AcDbVertex
100
AcDb2dVertex
 10
-289.4637162170642
 20
62.59542158802961
 30
50.00784729514272
  0
VERTEX
  5
1A4
330
185
100
AcDbEntity
  8
000__\U+6742\U+9879
100
AcDbVertex
100
AcDb2dVertex
 10
-289.412519820818
 20
62.53713203518153
 30
50.00784729514272
  0
VERTEX
  5
1A5
330
185
100
AcDbEntity
  8
000__\U+6742\U+9879
100
AcDbVertex
100
AcDb2dVertex
 10
-289.359797503954
 20
62.48014812065611
 30
50.00784729514272
  0
VERTEX
  5
1A6
330
185
100
AcDbEntity
  8
000__\U+6742\U+9879
100
AcDbVertex
100
AcDb2dVertex
 10
-289.3055999677004
 20
62.42452909979847
 30
50.00784729514272
  0
VERTEX
  5
1A7
330
185
100
AcDbEntity
  8
000__\U+6742\U+9879
100
AcDbVertex
100
AcDb2dVertex
 10
-289.2499809468428
 20
62.37033156354487
 30
50.00784729514272
  0
VERTEX
  5
1A8
330
185
100
AcDbEntity
  8
000__\U+6742\U+9879
100
AcDbVertex
100
AcDb2dVertex
 10
-289.1929970323174
 20
62.31760924668085
 30
50.00784729514272
  0
VERTEX
  5
1A9
330
185
100
AcDbEntity
  8
000__\U+6742\U+9879
100
AcDbVertex
100
AcDb2dVertex
 10
-289.1347074794692
 20
62.26641285043463
 30
50.00784729514272
  0
VERTEX
  5
1AA
330
185
100
AcDbEntity
  8
000__\U+6742\U+9879
100
AcDbVertex
100
AcDb2dVertex
 10
-289.0751740033384
 20
62.21678988063359
 30
50.00784729514272
  0
VERTEX
  5
1AB
330
185
100
AcDbEntity
  8
000__\U+6742\U+9879
100
AcDbVertex
100
AcDb2dVertex
 10
-289.014460562453
 20
62.16878450250381
 30
50.00784729514272
  0
VERTEX
  5
1AC
330
185
100
AcDbEntity
  8
000__\U+6742\U+9879
100
AcDbVertex
100
AcDb2dVertex
 10
-288.9526331327092
 20
62.12243741303109
 30
50.00784729514272
  0
VERTEX
  5
1AD
330
185
100
AcDbEntity
  8
000__\U+6742\U+9879
100
AcDbVertex
100
AcDb2dVertex
 10
-288.8897594729983
 20
62.07778573163166
 30
50.00784729514272
  0
VERTEX
  5
1AE
330
185
100
AcDbEntity
  8
000__\U+6742\U+9879
100
AcDbVertex
100
AcDb2dVertex
 10
-288.8259088842962
 20
62.03486290970217
 30
50.00784729514272
  0
VERTEX
  5
1AF
330
185
100
AcDbEntity
  8
000__\U+6742\U+9879
100
AcDbVertex
100
AcDb2dVertex
 10
-288.7611519639737
 20
61.99369865943687
 30
50.00784729514272
  0
VERTEX
  5
1B0
330
185
100
AcDbEntity
  8
000__\U+6742\U+9879
100
AcDbVertex
100
AcDb2dVertex
 10
-288.6955603570982
 20
61.95431890211582
 30
50.00784729514272
  0
VERTEX
  5
1B1
330
185
100
AcDbEntity
  8
000__\U+6742\U+9879
100
AcDbVertex
100
AcDb2dVertex
 10
-288.6292065064951
 20
61.91674573588479
 30
50.00784729514272
  0
VERTEX
  5
1B2
330
185
100
AcDbEntity
  8
000__\U+6742\U+9879
100
AcDbVertex
100
AcDb2dVertex
 10
-288.5621634033088
 20
61.88099742286887
 30
50.00784729514272
  0
VERTEX
  5
1B3
330
185
100
AcDbEntity
  8
000__\U+6742\U+9879
100
AcDbVertex
100
AcDb2dVertex
 10
-288.4945043397627
 20
61.84708839528926
 30
50.00784729514272
  0
VERTEX
  5
1B4
330
185
100
AcDbEntity
  8
000__\U+6742\U+9879
100
AcDbVertex
100
AcDb2dVertex
 10
-288.4263026657454
 20
61.81502928008786
 30
50.00784729514272
  0
VERTEX
  5
1B5
330
185
100
AcDbEntity
  8
000__\U+6742\U+9879
100
AcDbVertex
100
AcDb2dVertex
 10
-288.35763155078
 20
61.78482694141213
 30
50.00784729514272
  0
VERTEX
  5
1B6
330
185
100
AcDbEntity
  8
000__\U+6742\U+9879
100
AcDbVertex
100
AcDb2dVertex
 10
-288.2885637528264
 20
61.75648454017082
 30
50.00784729514272
  0
VERTEX
  5
1B7
330
185
100
AcDbEntity
  8
000__\U+6742\U+9879
100
AcDbVertex
100
AcDb2dVertex
 10
-288.2191713952653
 20
61.73000160974586
 30
50.00784729514272
  0
VERTEX
  5
1B8
330
185
100
AcDbEntity
  8
000__\U+6742\U+9879
100
AcDbVertex
100
AcDb2dVertex
 10
-288.1495257532866
 20
61.70537414683308
 30
50.00784729514272
  0
VERTEX
  5
1B9
330
185
100
AcDbEntity
  8
000__\U+6742\U+9879
100
AcDbVertex
100
AcDb2dVertex
 10
-288.0796970507789
 20
61.68259471629091
 30
50.00784729514272
  0
VERTEX
  5
1BA
330
185
100
AcDbEntity
  8
000__\U+6742\U+9879
100
AcDbVertex
100
AcDb2dVertex
 10
-288.0097542686769
 20
61.66165256879702
 30
50.00784729514272
  0
VERTEX
  5
1BB
330
185
100
AcDbEntity
  8
000__\U+6742\U+9879
100
AcDbVertex
100
AcDb2dVertex
 10
-287.9397649655864
 20
61.6425337700527
 30
50.00784729514272
  0
VERTEX
  5
1BC
330
185
100
AcDbEntity
  8
000__\U+6742\U+9879
100
AcDbVertex
100
AcDb2dVertex
 10
-287.8697951113602
 20
61.62522134022988
 30
50.00784729514272
  0
VERTEX
  5
1BD
330
185
100
AcDbEntity
  8
000__\U+6742\U+9879
100
AcDbVertex
100
AcDb2dVertex
 10
-287.7999089341577
 20
61.60969540232957
 30
50.00784729514272
  0
VERTEX
  5
1BE
330
185
100
AcDbEntity
  8
000__\U+6742\U+9879
100
AcDbVertex
100
AcDb2dVertex
 10
-287.7301687813774
 20
61.59593333810839
 30
50.00784729514272
  0
VERTEX
  5
1BF
330
185
100
AcDbEntity
  8
000__\U+6742\U+9879
100
AcDbVertex
100
AcDb2dVertex
 10
-287.6606349947156
 20
61.58390995023462
 30
50.00784729514272
  0
VERTEX
  5
1C0
330
185
100
AcDbEntity
  8
000__\U+6742\U+9879
100
AcDbVertex
100
AcDb2dVertex
 10
-287.5913657994718
 20
61.57359762935337
 30
50.00784729514272
  0
VERTEX
  5
1C1
330
185
100
AcDbEntity
  8
000__\U+6742\U+9879
100
AcDbVertex
100
AcDb2dVertex
 10
-287.5224172080925
 20
61.56496652477184
 30
50.00784729514272
  0
VERTEX
  5
1C2
330
185
100
AcDbEntity
  8
000__\U+6742\U+9879
100
AcDbVertex
100
AcDb2dVertex
 10
-287.453842937834
 20
61.55798471751947
 30
50.00784729514272
  0
VERTEX
  5
1C3
330
185
100
AcDbEntity
  8
000__\U+6742\U+9879
100
AcDbVertex
100
AcDb2dVertex
 10
-287.385694342309
 20
61.5526183945907
 30
50.00784729514272
  0
VERTEX
  5
1C4
330
185
100
AcDbEntity
  8
000__\U+6742\U+9879
100
AcDbVertex
100
AcDb2dVertex
 10
-287.3180203565868
 20
61.54883202324109
 30
50.00784729514272
  0
VERTEX
  5
1C5
330
185
100
AcDbEntity
  8
000__\U+6742\U+9879
100
AcDbVertex
100
AcDb2dVertex
 10
-287.2508674554257
 20
61.5465885242774
 30
50.00784729514272
  0
VERTEX
  5
1C6
330
185
100
AcDbEntity
  8
000__\U+6742\U+9879
100
AcDbVertex
100
AcDb2dVertex
 10
-287.1842796241409
 20
61.54584944335809
 30
50.00784729514272
  0
SEQEND
  5
1C7
330
185
100
AcDbEntity
  8
000__\U+6742\U+9879
  0
POLYLINE
  5
1C8
330
1F
100
AcDbEntity
  8
000__\U+6742\U+9879
100
AcDb2dPolyline
 66
     1
 10
0.0
 20
0.0
 30
50.00784729514272
  0
VERTEX
  5
1C9
330
1C8
100
AcDbEntity
  8
000__\U+6742\U+9879
100
AcDbVertex
100
AcDb2dVertex
 10
-287.1842796241409
 20
61.54584944335809
 30
50.00784729514272
  0
VERTEX
  5
1CA
330
1C8
100
AcDbEntity
  8
000__\U+6742\U+9879
100
AcDbVertex
100
AcDb2dVertex
 10
-145.187577435464
 20
61.54584944335809
 30
50.00784729514272
  0
SEQEND
  5
1CB
330
1C8
100
AcDbEntity
  8
000__\U+6742\U+9879
  0
POLYLINE
  5
1CC
330
1F
100
AcDbEntity
  8
000__\U+6742\U+9879
100
AcDb2dPolyline
 66
     1
 10
0.0
 20
0.0
 30
50.00784729514272
  0
VERTEX
  5
1CD
330
1CC
100
AcDbEntity
  8
000__\U+6742\U+9879
100
AcDbVertex
100
AcDb2dVertex
 10
-145.187577435464
 20
61.54584944335809
 30
50.00784729514272
  0
VERTEX
  5
1CE
330
1CC
100
AcDbEntity
  8
000__\U+6742\U+9879
100
AcDbVertex
100
AcDb2dVertex
 10
-145.1209896041792
 20
61.5465885242774
 30
50.00784729514272
  0
VERTEX
  5
1CF
330
1CC
100
AcDbEntity
  8
000__\U+6742\U+9879
100
AcDbVertex
100
AcDb2dVertex
 10
-145.053836703018
 20
61.54883202324108
 30
50.00784729514272
  0
VERTEX
  5
1D0
330
1CC
100
AcDbEntity
  8
000__\U+6742\U+9879
100
AcDbVertex
100
AcDb2dVertex
 10
-144.9861627172958
 20
61.5526183945907
 30
50.00784729514272
  0
VERTEX
  5
1D1
330
1CC
100
AcDbEntity
  8
000__\U+6742\U+9879
100
AcDbVertex
100
AcDb2dVertex
 10
-144.9180141217709
 20
61.55798471751946
 30
50.00784729514272
  0
VERTEX
  5
1D2
330
1CC
100
AcDbEntity
  8
000__\U+6742\U+9879
100
AcDbVertex
100
AcDb2dVertex
 10
-144.8494398515124
 20
61.56496652477183
 30
50.00784729514272
  0
VERTEX
  5
1D3
330
1CC
100
AcDbEntity
  8
000__\U+6742\U+9879
100
AcDbVertex
100
AcDb2dVertex
 10
-144.780491260133
 20
61.57359762935337
 30
50.00784729514272
  0
VERTEX
  5
1D4
330
1CC
100
AcDbEntity
  8
000__\U+6742\U+9879
100
AcDbVertex
100
AcDb2dVertex
 10
-144.7112220648892
 20
61.58390995023463
 30
50.00784729514272
  0
VERTEX
  5
1D5
330
1CC
100
AcDbEntity
  8
000__\U+6742\U+9879
100
AcDbVertex
100
AcDb2dVertex
 10
-144.6416882782276
 20
61.59593333810838
 30
50.00784729514272
  0
VERTEX
  5
1D6
330
1CC
100
AcDbEntity
  8
000__\U+6742\U+9879
100
AcDbVertex
100
AcDb2dVertex
 10
-144.5719481254472
 20
61.60969540232955
 30
50.00784729514272
  0
VERTEX
  5
1D7
330
1CC
100
AcDbEntity
  8
000__\U+6742\U+9879
100
AcDbVertex
100
AcDb2dVertex
 10
-144.5020619482447
 20
61.62522134022987
 30
50.00784729514272
  0
VERTEX
  5
1D8
330
1CC
100
AcDbEntity
  8
000__\U+6742\U+9879
100
AcDbVertex
100
AcDb2dVertex
 10
-144.4320920940185
 20
61.64253377005271
 30
50.00784729514272
  0
VERTEX
  5
1D9
330
1CC
100
AcDbEntity
  8
000__\U+6742\U+9879
100
AcDbVertex
100
AcDb2dVertex
 10
-144.3621027909279
 20
61.66165256879702
 30
50.00784729514272
  0
VERTEX
  5
1DA
330
1CC
100
AcDbEntity
  8
000__\U+6742\U+9879
100
AcDbVertex
100
AcDb2dVertex
 10
-144.2921600088259
 20
61.68259471629089
 30
50.00784729514272
  0
VERTEX
  5
1DB
330
1CC
100
AcDbEntity
  8
000__\U+6742\U+9879
100
AcDbVertex
100
AcDb2dVertex
 10
-144.2223313063182
 20
61.70537414683308
 30
50.00784729514272
  0
VERTEX
  5
1DC
330
1CC
100
AcDbEntity
  8
000__\U+6742\U+9879
100
AcDbVertex
100
AcDb2dVertex
 10
-144.1526856643395
 20
61.73000160974587
 30
50.00784729514272
  0
VERTEX
  5
1DD
330
1CC
100
AcDbEntity
  8
000__\U+6742\U+9879
100
AcDbVertex
100
AcDb2dVertex
 10
-144.0832933067784
 20
61.75648454017082
 30
50.00784729514272
  0
VERTEX
  5
1DE
330
1CC
100
AcDbEntity
  8
000__\U+6742\U+9879
100
AcDbVertex
100
AcDb2dVertex
 10
-144.0142255088249
 20
61.7848269414121
 30
50.00784729514272
  0
VERTEX
  5
1DF
330
1CC
100
AcDbEntity
  8
000__\U+6742\U+9879
100
AcDbVertex
100
AcDb2dVertex
 10
-143.9455543938595
 20
61.81502928008786
 30
50.00784729514272
  0
VERTEX
  5
1E0
330
1CC
100
AcDbEntity
  8
000__\U+6742\U+9879
100
AcDbVertex
100
AcDb2dVertex
 10
-143.8773527198422
 20
61.84708839528925
 30
50.00784729514272
  0
VERTEX
  5
1E1
330
1CC
100
AcDbEntity
  8
000__\U+6742\U+9879
100
AcDbVertex
100
AcDb2dVertex
 10
-143.809693656296
 20
61.88099742286885
 30
50.00784729514272
  0
VERTEX
  5
1E2
330
1CC
100
AcDbEntity
  8
000__\U+6742\U+9879
100
AcDbVertex
100
AcDb2dVertex
 10
-143.7426505531098
 20
61.91674573588478
 30
50.00784729514272
  0
VERTEX
  5
1E3
330
1CC
100
AcDbEntity
  8
000__\U+6742\U+9879
100
AcDbVertex
100
AcDb2dVertex
 10
-143.6762967025066
 20
61.95431890211582
 30
50.00784729514272
  0
VERTEX
  5
1E4
330
1CC
100
AcDbEntity
  8
000__\U+6742\U+9879
100
AcDbVertex
100
AcDb2dVertex
 10
-143.6107050956311
 20
61.99369865943687
 30
50.00784729514272
  0
VERTEX
  5
1E5
330
1CC
100
AcDbEntity
  8
000__\U+6742\U+9879
100
AcDbVertex
100
AcDb2dVertex
 10
-143.5459481753086
 20
62.03486290970216
 30
50.00784729514272
  0
VERTEX
  5
1E6
330
1CC
100
AcDbEntity
  8
000__\U+6742\U+9879
100
AcDbVertex
100
AcDb2dVertex
 10
-143.4820975866065
 20
62.07778573163166
 30
50.00784729514272
  0
VERTEX
  5
1E7
330
1CC
100
AcDbEntity
  8
000__\U+6742\U+9879
100
AcDbVertex
100
AcDb2dVertex
 10
-143.4192239268956
 20
62.12243741303107
 30
50.00784729514272
  0
VERTEX
  5
1E8
330
1CC
100
AcDbEntity
  8
000__\U+6742\U+9879
100
AcDbVertex
100
AcDb2dVertex
 10
-143.3573964971519
 20
62.16878450250379
 30
50.00784729514272
  0
VERTEX
  5
1E9
330
1CC
100
AcDbEntity
  8
000__\U+6742\U+9879
100
AcDbVertex
100
AcDb2dVertex
 10
-143.2966830562663
 20
62.21678988063359
 30
50.00784729514272
  0
VERTEX
  5
1EA
330
1CC
100
AcDbEntity
  8
000__\U+6742\U+9879
100
AcDbVertex
100
AcDb2dVertex
 10
-143.2371495801355
 20
62.26641285043463
 30
50.00784729514272
  0
VERTEX
  5
1EB
330
1CC
100
AcDbEntity
  8
000__\U+6742\U+9879
100
AcDbVertex
100
AcDb2dVertex
 10
-143.1788600272874
 20
62.31760924668085
 30
50.00784729514272
  0
VERTEX
  5
1EC
330
1CC
100
AcDbEntity
  8
000__\U+6742\U+9879
100
AcDbVertex
100
AcDb2dVertex
 10
-143.121876112762
 20
62.37033156354487
 30
50.00784729514272
  0
VERTEX
  5
1ED
330
1CC
100
AcDbEntity
  8
000__\U+6742\U+9879
100
AcDbVertex
100
AcDb2dVertex
 10
-143.0662570919044
 20
62.42452909979847
 30
50.00784729514272
  0
VERTEX
  5
1EE
330
1CC
100
AcDbEntity
  8
000__\U+6742\U+9879
100
AcDbVertex
100
AcDb2dVertex
 10
-143.0120595556508
 20
62.4801481206561
 30
50.00784729514272
  0
VERTEX
  5
1EF
330
1CC
100
AcDbEntity
  8
000__\U+6742\U+9879
100
AcDbVertex
100
AcDb2dVertex
 10
-142.9593372387868
 20
62.53713203518154
 30
50.00784729514272
  0
VERTEX
  5
1F0
330
1CC
100
AcDbEntity
  8
000__\U+6742\U+9879
100
AcDbVertex
100
AcDb2dVertex
 10
-142.9081408425405
 20
62.59542158802962
 30
50.00784729514272
  0
VERTEX
  5
1F1
330
1CC
100
AcDbEntity
  8
000__\U+6742\U+9879
100
AcDbVertex
100
AcDb2dVertex
 10
-142.8585178727395
 20
62.65495506416043
 30
50.00784729514272
  0
VERTEX
  5
1F2
330
1CC
100
AcDbEntity
  8
000__\U+6742\U+9879
100
AcDbVertex
100
AcDb2dVertex
 10
-142.8105124946097
 20
62.71566850504595
 30
50.00784729514272
  0
VERTEX
  5
1F3
330
1CC
100
AcDbEntity
  8
000__\U+6742\U+9879
100
AcDbVertex
100
AcDb2dVertex
 10
-142.764165405137
 20
62.7774959347897
 30
50.00784729514272
  0
VERTEX
  5
1F4
330
1CC
100
AcDbEntity
  8
000__\U+6742\U+9879
100
AcDbVertex
100
AcDb2dVertex
 10
-142.7195137237375
 20
62.84036959450061
 30
50.00784729514272
  0
VERTEX
  5
1F5
330
1CC
100
AcDbEntity
  8
000__\U+6742\U+9879
100
AcDbVertex
100
AcDb2dVertex
 10
-142.676590901808
 20
62.90422018320268
 30
50.00784729514272
  0
VERTEX
  5
1F6
330
1CC
100
AcDbEntity
  8
000__\U+6742\U+9879
100
AcDbVertex
100
AcDb2dVertex
 10
-142.6354266515428
 20
62.96897710352519
 30
50.00784729514272
  0
VERTEX
  5
1F7
330
1CC
100
AcDbEntity
  8
000__\U+6742\U+9879
100
AcDbVertex
100
AcDb2dVertex
 10
-142.5960468942217
 20
63.03456871040066
 30
50.00784729514272
  0
VERTEX
  5
1F8
330
1CC
100
AcDbEntity
  8
000__\U+6742\U+9879
100
AcDbVertex
100
AcDb2dVertex
 10
-142.5584737279907
 20
63.1009225610039
 30
50.00784729514272
  0
VERTEX
  5
1F9
330
1CC
100
AcDbEntity
  8
000__\U+6742\U+9879
100
AcDbVertex
100
AcDb2dVertex
 10
-142.5227254149748
 20
63.1679656641901
 30
50.00784729514272
  0
VERTEX
  5
1FA
330
1CC
100
AcDbEntity
  8
000__\U+6742\U+9879
100
AcDbVertex
100
AcDb2dVertex
 10
-142.4888163873952
 20
63.23562472773633
 30
50.00784729514272
  0
VERTEX
  5
1FB
330
1CC
100
AcDbEntity
  8
000__\U+6742\U+9879
100
AcDbVertex
100
AcDb2dVertex
 10
-142.4567572721938
 20
63.30382640175358
 30
50.00784729514272
  0
VERTEX
  5
1FC
330
1CC
100
AcDbEntity
  8
000__\U+6742\U+9879
100
AcDbVertex
100
AcDb2dVertex
 10
-142.426554933518
 20
63.37249751671894
 30
50.00784729514272
  0
VERTEX
  5
1FD
330
1CC
100
AcDbEntity
  8
000__\U+6742\U+9879
100
AcDbVertex
100
AcDb2dVertex
 10
-142.3982125322767
 20
63.44156531467249
 30
50.00784729514272
  0
VERTEX
  5
1FE
330
1CC
100
AcDbEntity
  8
000__\U+6742\U+9879
100
AcDbVertex
100
AcDb2dVertex
 10
-142.3717296018518
 20
63.51095767223362
 30
50.00784729514272
  0
VERTEX
  5
1FF
330
1CC
100
AcDbEntity
  8
000__\U+6742\U+9879
100
AcDbVertex
100
AcDb2dVertex
 10
-142.347102138939
 20
63.58060331421228
 30
50.00784729514272
  0
VERTEX
  5
200
330
1CC
100
AcDbEntity
  8
000__\U+6742\U+9879
100
AcDbVertex
100
AcDb2dVertex
 10
-142.3243227083968
 20
63.65043201672
 30
50.00784729514272
  0
VERTEX
  5
201
330
1CC
100
AcDbEntity
  8
000__\U+6742\U+9879
100
AcDbVertex
100
AcDb2dVertex
 10
-142.3033805609029
 20
63.720374798822
 30
50.00784729514272
  0
VERTEX
  5
202
330
1CC
100
AcDbEntity
  8
000__\U+6742\U+9879
100
AcDbVertex
100
AcDb2dVertex
 10
-142.2842617621586
 20
63.79036410191256
 30
50.00784729514272
  0
VERTEX
  5
203
330
1CC
100
AcDbEntity
  8
000__\U+6742\U+9879
100
AcDbVertex
100
AcDb2dVertex
 10
-142.2669493323357
 20
63.86033395613877
 30
50.00784729514272
  0
VERTEX
  5
204
330
1CC
100
AcDbEntity
  8
000__\U+6742\U+9879
100
AcDbVertex
100
AcDb2dVertex
 10
-142.2514233944354
 20
63.93022013334133
 30
50.00784729514272
  0
VERTEX
  5
205
330
1CC
100
AcDbEntity
  8
000__\U+6742\U+9879
100
AcDbVertex
100
AcDb2dVertex
 10
-142.2376613302143
 20
63.99996028612167
 30
50.00784729514272
  0
VERTEX
  5
206
330
1CC
100
AcDbEntity
  8
000__\U+6742\U+9879
100
AcDbVertex
100
AcDb2dVertex
 10
-142.2256379423405
 20
64.0694940727833
 30
50.00784729514272
  0
VERTEX
  5
207
330
1CC
100
AcDbEntity
  8
000__\U+6742\U+9879
100
AcDbVertex
100
AcDb2dVertex
 10
-142.2153256214593
 20
64.13876326802715
 30
50.00784729514272
  0
VERTEX
  5
208
330
1CC
100
AcDbEntity
  8
000__\U+6742\U+9879
100
AcDbVertex
100
AcDb2dVertex
 10
-142.2066945168777
 20
64.20771185940649
 30
50.00784729514272
  0
VERTEX
  5
209
330
1CC
100
AcDbEntity
  8
000__\U+6742\U+9879
100
AcDbVertex
100
AcDb2dVertex
 10
-142.1997127096253
 20
64.27628612966498
 30
50.00784729514272
  0
VERTEX
  5
20A
330
1CC
100
AcDbEntity
  8
000__\U+6742\U+9879
100
AcDbVertex
100
AcDb2dVertex
 10
-142.1943463866966
 20
64.34443472518988
 30
50.00784729514272
  0
VERTEX
  5
20B
330
1CC
100
AcDbEntity
  8
000__\U+6742\U+9879
100
AcDbVertex
100
AcDb2dVertex
 10
-142.190560015347
 20
64.41210871091211
 30
50.00784729514272
  0
VERTEX
  5
20C
330
1CC
100
AcDbEntity
  8
000__\U+6742\U+9879
100
AcDbVertex
100
AcDb2dVertex
 10
-142.1883165163833
 20
64.47926161207327
 30
50.00784729514272
  0
VERTEX
  5
20D
330
1CC
100
AcDbEntity
  8
000__\U+6742\U+9879
100
AcDbVertex
100
AcDb2dVertex
 10
-142.187577435464
 20
64.5458494433581
 30
50.00784729514272
  0
SEQEND
  5
20E
330
1CC
100
AcDbEntity
  8
000__\U+6742\U+9879
  0
POLYLINE
  5
20F
330
1F
100
AcDbEntity
  8
000__\U+6742\U+9879
100
AcDb2dPolyline
 66
     1
 10
0.0
 20
0.0
 30
50.00784729514272
  0
VERTEX
  5
210
330
20F
100
AcDbEntity
  8
000__\U+6742\U+9879
100
AcDbVertex
100
AcDb2dVertex
 10
-142.187577435464
 20
64.5458494433581
 30
50.00784729514272
  0
VERTEX
  5
211
330
20F
100
AcDbEntity
  8
000__\U+6742\U+9879
100
AcDbVertex
100
AcDb2dVertex
 10
-142.187577435464
 20
66.36432445742898
 30
50.00784729514272
  0
SEQEND
  5
212
330
20F
100
AcDbEntity
  8
000__\U+6742\U+9879
  0
ARC
  5
213
330
1F
100
AcDbEntity
  8
000__\U+6742\U+9879
100
AcDbCircle
 10
136.1875774354642
 20
66.36432376427118
 30
-50.00784729514272
 40
5.999999999999877
210
0.0
220
0.0
230
-1.0
100
AcDbArc
 50
0.0000066191694259
 51
89.9999867273444
  0
LINE
  5
214
330
1F
100
AcDbEntity
  8
000__\U+6742\U+9879
100
AcDbLine
 10
-136.1875788253734
 20
72.36432376427089
 30
50.00784729514272
 11
-114.187580858659
 21
72.36432376438646
 31
50.00784729514272
  0
POLYLINE
  5
215
330
1F
100
AcDbEntity
  8
000__\U+6742\U+9879
100
AcDb2dPolyline
 66
     1
 10
0.0
 20
0.0
 30
50.00784729514272
  0
VERTEX
  5
216
330
215
100
AcDbEntity
  8
000__\U+6742\U+9879
100
AcDbVertex
100
AcDb2dVertex
 10
-114.187580858659
 20
72.36432376438646
 30
50.00784729514272
  0
VERTEX
  5
217
330
215
100
AcDbEntity
  8
000__\U+6742\U+9879
100
AcDbVertex
100
AcDb2dVertex
 10
-114.1209930273747
 20
72.36506284530685
 30
50.00784729514272
  0
VERTEX
  5
218
330
215
100
AcDbEntity
  8
000__\U+6742\U+9879
100
AcDbVertex
100
AcDb2dVertex
 10
-114.0538401262142
 20
72.36730634427161
 30
50.00784729514272
  0
VERTEX
  5
219
330
215
100
AcDbEntity
  8
000__\U+6742\U+9879
100
AcDbVertex
100
AcDb2dVertex
 10
-113.9861661404926
 20
72.37109271562227
 30
50.00784729514272
  0
VERTEX
  5
21A
330
215
100
AcDbEntity
  8
000__\U+6742\U+9879
100
AcDbVertex
100
AcDb2dVertex
 10
-113.9180175449684
 20
72.37645903855208
 30
50.00784729514272
  0
VERTEX
  5
21B
330
215
100
AcDbEntity
  8
000__\U+6742\U+9879
100
AcDbVertex
100
AcDb2dVertex
 10
-113.8494432747106
 20
72.38344084580545
 30
50.00784729514272
  0
VERTEX
  5
21C
330
215
100
AcDbEntity
  8
000__\U+6742\U+9879
100
AcDbVertex
100
AcDb2dVertex
 10
-113.780494683332
 20
72.39207195038799
 30
50.00784729514272
  0
VERTEX
  5
21D
330
215
100
AcDbEntity
  8
000__\U+6742\U+9879
100
AcDbVertex
100
AcDb2dVertex
 10
-113.711225488089
 20
72.4023842712702
 30
50.00784729514272
  0
VERTEX
  5
21E
330
215
100
AcDbEntity
  8
000__\U+6742\U+9879
100
AcDbVertex
100
AcDb2dVertex
 10
-113.6416917014282
 20
72.41440765914489
 30
50.00784729514272
  0
VERTEX
  5
21F
330
215
100
AcDbEntity
  8
000__\U+6742\U+9879
100
AcDbVertex
100
AcDb2dVertex
 10
-113.5719515486488
 20
72.42816972336696
 30
50.00784729514272
  0
VERTEX
  5
220
330
215
100
AcDbEntity
  8
000__\U+6742\U+9879
100
AcDbVertex
100
AcDb2dVertex
 10
-113.5020653714471
 20
72.44369566126812
 30
50.00784729514272
  0
VERTEX
  5
221
330
215
100
AcDbEntity
  8
000__\U+6742\U+9879
100
AcDbVertex
100
AcDb2dVertex
 10
-113.4320955172218
 20
72.46100809109177
 30
50.00784729514272
  0
VERTEX
  5
222
330
215
100
AcDbEntity
  8
000__\U+6742\U+9879
100
AcDbVertex
100
AcDb2dVertex
 10
-113.3621062141323
 20
72.4801268898369
 30
50.00784729514272
  0
VERTEX
  5
223
330
215
100
AcDbEntity
  8
000__\U+6742\U+9879
100
AcDbVertex
100
AcDb2dVertex
 10
-113.2921634320313
 20
72.50106903733153
 30
50.00784729514272
  0
VERTEX
  5
224
330
215
100
AcDbEntity
  8
000__\U+6742\U+9879
100
AcDbVertex
100
AcDb2dVertex
 10
-113.2223347295246
 20
72.52384846787442
 30
50.00784729514272
  0
VERTEX
  5
225
330
215
100
AcDbEntity
  8
000__\U+6742\U+9879
100
AcDbVertex
100
AcDb2dVertex
 10
-113.152689087547
 20
72.54847593078787
 30
50.00784729514272
  0
VERTEX
  5
226
330
215
100
AcDbEntity
  8
000__\U+6742\U+9879
100
AcDbVertex
100
AcDb2dVertex
 10
-113.083296729987
 20
72.57495886121346
 30
50.00784729514272
  0
VERTEX
  5
227
330
215
100
AcDbEntity
  8
000__\U+6742\U+9879
100
AcDbVertex
100
AcDb2dVertex
 10
-113.0142289320345
 20
72.60330126245535
 30
50.00784729514272
  0
VERTEX
  5
228
330
215
100
AcDbEntity
  8
000__\U+6742\U+9879
100
AcDbVertex
100
AcDb2dVertex
 10
-112.9455578170703
 20
72.6335036011316
 30
50.00784729514272
  0
VERTEX
  5
229
330
215
100
AcDbEntity
  8
000__\U+6742\U+9879
100
AcDbVertex
100
AcDb2dVertex
 10
-112.8773561430542
 20
72.66556271633348
 30
50.00784729514272
  0
VERTEX
  5
22A
330
215
100
AcDbEntity
  8
000__\U+6742\U+9879
100
AcDbVertex
100
AcDb2dVertex
 10
-112.8096970795091
 20
72.69947174391353
 30
50.00784729514272
  0
VERTEX
  5
22B
330
215
100
AcDbEntity
  8
000__\U+6742\U+9879
100
AcDbVertex
100
AcDb2dVertex
 10
-112.7426539763241
 20
72.73522005692985
 30
50.00784729514272
  0
VERTEX
  5
22C
330
215
100
AcDbEntity
  8
000__\U+6742\U+9879
100
AcDbVertex
100
AcDb2dVertex
 10
-112.676300125722
 20
72.77279322316122
 30
50.00784729514272
  0
VERTEX
  5
22D
330
215
100
AcDbEntity
  8
000__\U+6742\U+9879
100
AcDbVertex
100
AcDb2dVertex
 10
-112.6107085188477
 20
72.81217298048254
 30
50.00784729514272
  0
VERTEX
  5
22E
330
215
100
AcDbEntity
  8
000__\U+6742\U+9879
100
AcDbVertex
100
AcDb2dVertex
 10
-112.5459515985264
 20
72.85333723074807
 30
50.00784729514272
  0
VERTEX
  5
22F
330
215
100
AcDbEntity
  8
000__\U+6742\U+9879
100
AcDbVertex
100
AcDb2dVertex
 10
-112.4821010098255
 20
72.89626005267773
 30
50.00784729514272
  0
VERTEX
  5
230
330
215
100
AcDbEntity
  8
000__\U+6742\U+9879
100
AcDbVertex
100
AcDb2dVertex
 10
-112.4192273501158
 20
72.94091173407728
 30
50.00784729514272
  0
VERTEX
  5
231
330
215
100
AcDbEntity
  8
000__\U+6742\U+9879
100
AcDbVertex
100
AcDb2dVertex
 10
-112.3573999203732
 20
72.98725882355006
 30
50.00784729514272
  0
VERTEX
  5
232
330
215
100
AcDbEntity
  8
000__\U+6742\U+9879
100
AcDbVertex
100
AcDb2dVertex
 10
-112.2966864794889
 20
73.0352642016799
 30
50.00784729514272
  0
VERTEX
  5
233
330
215
100
AcDbEntity
  8
000__\U+6742\U+9879
100
AcDbVertex
100
AcDb2dVertex
 10
-112.2371530033592
 20
73.0848871714809
 30
50.00784729514272
  0
VERTEX
  5
234
330
215
100
AcDbEntity
  8
000__\U+6742\U+9879
100
AcDbVertex
100
AcDb2dVertex
 10
-112.1788634505123
 20
73.13608356772706
 30
50.00784729514272
  0
VERTEX
  5
235
330
215
100
AcDbEntity
  8
000__\U+6742\U+9879
100
AcDbVertex
100
AcDb2dVertex
 10
-112.121879535988
 20
73.18880588459093
 30
50.00784729514272
  0
VERTEX
  5
236
330
215
100
AcDbEntity
  8
000__\U+6742\U+9879
100
AcDbVertex
100
AcDb2dVertex
 10
-112.0662605151314
 20
73.24300342084437
 30
50.00784729514272
  0
VERTEX
  5
237
330
215
100
AcDbEntity
  8
000__\U+6742\U+9879
100
AcDbVertex
100
AcDb2dVertex
 10
-112.0120629788789
 20
73.2986224417018
 30
50.00784729514272
  0
VERTEX
  5
238
330
215
100
AcDbEntity
  8
000__\U+6742\U+9879
100
AcDbVertex
100
AcDb2dVertex
 10
-111.959340662016
 20
73.35560635622699
 30
50.00784729514272
  0
VERTEX
  5
239
330
215
100
AcDbEntity
  8
000__\U+6742\U+9879
100
AcDbVertex
100
AcDb2dVertex
 10
-111.9081442657708
 20
73.41389590907475
 30
50.00784729514272
  0
VERTEX
  5
23A
330
215
100
AcDbEntity
  8
000__\U+6742\U+9879
100
AcDbVertex
100
AcDb2dVertex
 10
-111.8585212959707
 20
73.47342938520524
 30
50.00784729514272
  0
VERTEX
  5
23B
330
215
100
AcDbEntity
  8
000__\U+6742\U+9879
100
AcDbVertex
100
AcDb2dVertex
 10
-111.8105159178419
 20
73.53414282609037
 30
50.00784729514272
  0
VERTEX
  5
23C
330
215
100
AcDbEntity
  8
000__\U+6742\U+9879
100
AcDbVertex
100
AcDb2dVertex
 10
-111.7641688283701
 20
73.59597025583373
 30
50.00784729514272
  0
VERTEX
  5
23D
330
215
100
AcDbEntity
  8
000__\U+6742\U+9879
100
AcDbVertex
100
AcDb2dVertex
 10
-111.7195171469716
 20
73.65884391554418
 30
50.00784729514272
  0
VERTEX
  5
23E
330
215
100
AcDbEntity
  8
000__\U+6742\U+9879
100
AcDbVertex
100
AcDb2dVertex
 10
-111.676594325043
 20
73.72269450424578
 30
50.00784729514272
  0
VERTEX
  5
23F
330
215
100
AcDbEntity
  8
000__\U+6742\U+9879
100
AcDbVertex
100
AcDb2dVertex
 10
-111.6354300747786
 20
73.78745142456778
 30
50.00784729514272
  0
VERTEX
  5
240
330
215
100
AcDbEntity
  8
000__\U+6742\U+9879
100
AcDbVertex
100
AcDb2dVertex
 10
-111.5960503174583
 20
73.85304303144271
 30
50.00784729514272
  0
VERTEX
  5
241
330
215
100
AcDbEntity
  8
000__\U+6742\U+9879
100
AcDbVertex
100
AcDb2dVertex
 10
-111.558477151228
 20
73.91939688204539
 30
50.00784729514272
  0
VERTEX
  5
242
330
215
100
AcDbEntity
  8
000__\U+6742\U+9879
100
AcDbVertex
100
AcDb2dVertex
 10
-111.5227288382128
 20
73.98643998523103
 30
50.00784729514272
  0
VERTEX
  5
243
330
215
100
AcDbEntity
  8
000__\U+6742\U+9879
100
AcDbVertex
100
AcDb2dVertex
 10
-111.4888198106339
 20
74.05409904877664
 30
50.00784729514272
  0
VERTEX
  5
244
330
215
100
AcDbEntity
  8
000__\U+6742\U+9879
100
AcDbVertex
100
AcDb2dVertex
 10
-111.4567606954331
 20
74.12230072279327
 30
50.00784729514272
  0
VERTEX
  5
245
330
215
100
AcDbEntity
  8
000__\U+6742\U+9879
100
AcDbVertex
100
AcDb2dVertex
 10
-111.426558356758
 20
74.19097183775801
 30
50.00784729514272
  0
VERTEX
  5
246
330
215
100
AcDbEntity
  8
000__\U+6742\U+9879
100
AcDbVertex
100
AcDb2dVertex
 10
-111.3982159555173
 20
74.26003963571092
 30
50.00784729514272
  0
VERTEX
  5
247
330
215
100
AcDbEntity
  8
000__\U+6742\U+9879
100
AcDbVertex
100
AcDb2dVertex
 10
-111.3717330250928
 20
74.32943199327138
 30
50.00784729514272
  0
VERTEX
  5
248
330
215
100
AcDbEntity
  8
000__\U+6742\U+9879
100
AcDbVertex
100
AcDb2dVertex
 10
-111.3471055621805
 20
74.39907763524938
 30
50.00784729514272
  0
VERTEX
  5
249
330
215
100
AcDbEntity
  8
000__\U+6742\U+9879
100
AcDbVertex
100
AcDb2dVertex
 10
-111.3243261316388
 20
74.46890633775645
 30
50.00784729514272
  0
VERTEX
  5
24A
330
215
100
AcDbEntity
  8
000__\U+6742\U+9879
100
AcDbVertex
100
AcDb2dVertex
 10
-111.3033839841453
 20
74.53884911985779
 30
50.00784729514272
  0
VERTEX
  5
24B
330
215
100
AcDbEntity
  8
000__\U+6742\U+9879
100
AcDbVertex
100
AcDb2dVertex
 10
-111.2842651854013
 20
74.60883842294767
 30
50.00784729514272
  0
VERTEX
  5
24C
330
215
100
AcDbEntity
  8
000__\U+6742\U+9879
100
AcDbVertex
100
AcDb2dVertex
 10
-111.2669527555788
 20
74.67880827717322
 30
50.00784729514272
  0
VERTEX
  5
24D
330
215
100
AcDbEntity
  8
000__\U+6742\U+9879
100
AcDbVertex
100
AcDb2dVertex
 10
-111.2514268176788
 20
74.74869445437514
 30
50.00784729514272
  0
VERTEX
  5
24E
330
215
100
AcDbEntity
  8
000__\U+6742\U+9879
100
AcDbVertex
100
AcDb2dVertex
 10
-111.2376647534579
 20
74.81843460715481
 30
50.00784729514272
  0
VERTEX
  5
24F
330
215
100
AcDbEntity
  8
000__\U+6742\U+9879
100
AcDbVertex
100
AcDb2dVertex
 10
-111.2256413655843
 20
74.8879683938158
 30
50.00784729514272
  0
VERTEX
  5
250
330
215
100
AcDbEntity
  8
000__\U+6742\U+9879
100
AcDbVertex
100
AcDb2dVertex
 10
-111.2153290447033
 20
74.95723758905902
 30
50.00784729514272
  0
VERTEX
  5
251
330
215
100
AcDbEntity
  8
000__\U+6742\U+9879
100
AcDbVertex
100
AcDb2dVertex
 10
-111.2066979401219
 20
75.02618618043773
 30
50.00784729514272
  0
VERTEX
  5
252
330
215
100
AcDbEntity
  8
000__\U+6742\U+9879
100
AcDbVertex
100
AcDb2dVertex
 10
-111.1997161328696
 20
75.09476045069562
 30
50.00784729514272
  0
VERTEX
  5
253
330
215
100
AcDbEntity
  8
000__\U+6742\U+9879
100
AcDbVertex
100
AcDb2dVertex
 10
-111.1943498099409
 20
75.16290904621991
 30
50.00784729514272
  0
VERTEX
  5
254
330
215
100
AcDbEntity
  8
000__\U+6742\U+9879
100
AcDbVertex
100
AcDb2dVertex
 10
-111.1905634385914
 20
75.23058303194156
 30
50.00784729514272
  0
VERTEX
  5
255
330
215
100
AcDbEntity
  8
000__\U+6742\U+9879
100
AcDbVertex
100
AcDb2dVertex
 10
-111.1883199396277
 20
75.29773593310213
 30
50.00784729514272
  0
VERTEX
  5
256
330
215
100
AcDbEntity
  8
000__\U+6742\U+9879
100
AcDbVertex
100
AcDb2dVertex
 10
-111.1875808587084
 20
75.3643237643864
 30
50.00784729514272
  0
SEQEND
  5
257
330
215
100
AcDbEntity
  8
000__\U+6742\U+9879
  0
LINE
  5
258
330
1F
100
AcDbEntity
  8
000__\U+6742\U+9879
100
AcDbLine
 10
-111.1875808587084
 20
75.3643237643864
 30
50.00784729514273
 11
-111.1875808587084
 21
331.3643229030731
 31
50.00784729514272
  0
POLYLINE
  5
259
330
1F
100
AcDbEntity
  8
000__\U+6742\U+9879
100
AcDb2dPolyline
 66
     1
 10
0.0
 20
0.0
 30
50.00784729514272
  0
VERTEX
  5
25A
330
259
100
AcDbEntity
  8
000__\U+6742\U+9879
100
AcDbVertex
100
AcDb2dVertex
 10
-111.1875808587084
 20
331.3643229030731
 30
50.00784729514272
  0
VERTEX
  5
25B
330
259
100
AcDbEntity
  8
000__\U+6742\U+9879
100
AcDbVertex
100
AcDb2dVertex
 10
-111.1883199396277
 20
331.4309107343573
 30
50.00784729514272
  0
VERTEX
  5
25C
330
259
100
AcDbEntity
  8
000__\U+6742\U+9879
100
AcDbVertex
100
AcDb2dVertex
 10
-111.1905634385914
 20
331.4980636355179
 30
50.00784729514272
  0
VERTEX
  5
25D
330
259
100
AcDbEntity
  8
000__\U+6742\U+9879
100
AcDbVertex
100
AcDb2dVertex
 10
-111.1943498099409
 20
331.5657376212396
 30
50.00784729514272
  0
VERTEX
  5
25E
330
259
100
AcDbEntity
  8
000__\U+6742\U+9879
100
AcDbVertex
100
AcDb2dVertex
 10
-111.1997161328696
 20
331.6338862167638
 30
50.00784729514272
  0
VERTEX
  5
25F
330
259
100
AcDbEntity
  8
000__\U+6742\U+9879
100
AcDbVertex
100
AcDb2dVertex
 10
-111.2066979401218
 20
331.7024604870217
 30
50.00784729514272
  0
VERTEX
  5
260
330
259
100
AcDbEntity
  8
000__\U+6742\U+9879
100
AcDbVertex
100
AcDb2dVertex
 10
-111.2153290447032
 20
331.7714090784004
 30
50.00784729514272
  0
VERTEX
  5
261
330
259
100
AcDbEntity
  8
000__\U+6742\U+9879
100
AcDbVertex
100
AcDb2dVertex
 10
-111.2256413655843
 20
331.8406782736437
 30
50.00784729514272
  0
VERTEX
  5
262
330
259
100
AcDbEntity
  8
000__\U+6742\U+9879
100
AcDbVertex
100
AcDb2dVertex
 10
-111.2376647534578
 20
331.9102120603046
 30
50.00784729514272
  0
VERTEX
  5
263
330
259
100
AcDbEntity
  8
000__\U+6742\U+9879
100
AcDbVertex
100
AcDb2dVertex
 10
-111.2514268176787
 20
331.9799522130844
 30
50.00784729514272
  0
VERTEX
  5
264
330
259
100
AcDbEntity
  8
000__\U+6742\U+9879
100
AcDbVertex
100
AcDb2dVertex
 10
-111.2669527555787
 20
332.0498383902863
 30
50.00784729514272
  0
VERTEX
  5
265
330
259
100
AcDbEntity
  8
000__\U+6742\U+9879
100
AcDbVertex
100
AcDb2dVertex
 10
-111.2842651854012
 20
332.1198082445118
 30
50.00784729514272
  0
VERTEX
  5
266
330
259
100
AcDbEntity
  8
000__\U+6742\U+9879
100
AcDbVertex
100
AcDb2dVertex
 10
-111.3033839841452
 20
332.1897975476017
 30
50.00784729514272
  0
VERTEX
  5
267
330
259
100
AcDbEntity
  8
000__\U+6742\U+9879
100
AcDbVertex
100
AcDb2dVertex
 10
-111.3243261316386
 20
332.2597403297031
 30
50.00784729514272
  0
VERTEX
  5
268
330
259
100
AcDbEntity
  8
000__\U+6742\U+9879
100
AcDbVertex
100
AcDb2dVertex
 10
-111.3471055621804
 20
332.3295690322101
 30
50.00784729514272
  0
VERTEX
  5
269
330
259
100
AcDbEntity
  8
000__\U+6742\U+9879
100
AcDbVertex
100
AcDb2dVertex
 10
-111.3717330250927
 20
332.3992146741882
 30
50.00784729514272
  0
VERTEX
  5
26A
330
259
100
AcDbEntity
  8
000__\U+6742\U+9879
100
AcDbVertex
100
AcDb2dVertex
 10
-111.3982159555171
 20
332.4686070317485
 30
50.00784729514272
  0
VERTEX
  5
26B
330
259
100
AcDbEntity
  8
000__\U+6742\U+9879
100
AcDbVertex
100
AcDb2dVertex
 10
-111.4265583567579
 20
332.5376748297015
 30
50.00784729514272
  0
VERTEX
  5
26C
330
259
100
AcDbEntity
  8
000__\U+6742\U+9879
100
AcDbVertex
100
AcDb2dVertex
 10
-111.456760695433
 20
332.6063459446663
 30
50.00784729514272
  0
VERTEX
  5
26D
330
259
100
AcDbEntity
  8
000__\U+6742\U+9879
100
AcDbVertex
100
AcDb2dVertex
 10
-111.4888198106337
 20
332.6745476186828
 30
50.00784729514272
  0
VERTEX
  5
26E
330
259
100
AcDbEntity
  8
000__\U+6742\U+9879
100
AcDbVertex
100
AcDb2dVertex
 10
-111.5227288382127
 20
332.7422066822285
 30
50.00784729514272
  0
VERTEX
  5
26F
330
259
100
AcDbEntity
  8
000__\U+6742\U+9879
100
AcDbVertex
100
AcDb2dVertex
 10
-111.5584771512278
 20
332.8092497854141
 30
50.00784729514272
  0
VERTEX
  5
270
330
259
100
AcDbEntity
  8
000__\U+6742\U+9879
100
AcDbVertex
100
AcDb2dVertex
 10
-111.5960503174581
 20
332.8756036360169
 30
50.00784729514272
  0
VERTEX
  5
271
330
259
100
AcDbEntity
  8
000__\U+6742\U+9879
100
AcDbVertex
100
AcDb2dVertex
 10
-111.6354300747784
 20
332.9411952428919
 30
50.00784729514272
  0
VERTEX
  5
272
330
259
100
AcDbEntity
  8
000__\U+6742\U+9879
100
AcDbVertex
100
AcDb2dVertex
 10
-111.6765943250428
 20
333.0059521632138
 30
50.00784729514272
  0
VERTEX
  5
273
330
259
100
AcDbEntity
  8
000__\U+6742\U+9879
100
AcDbVertex
100
AcDb2dVertex
 10
-111.7195171469715
 20
333.0698027519154
 30
50.00784729514272
  0
VERTEX
  5
274
330
259
100
AcDbEntity
  8
000__\U+6742\U+9879
100
AcDbVertex
100
AcDb2dVertex
 10
-111.76416882837
 20
333.1326764116259
 30
50.00784729514272
  0
VERTEX
  5
275
330
259
100
AcDbEntity
  8
000__\U+6742\U+9879
100
AcDbVertex
100
AcDb2dVertex
 10
-111.8105159178418
 20
333.1945038413693
 30
50.00784729514272
  0
VERTEX
  5
276
330
259
100
AcDbEntity
  8
000__\U+6742\U+9879
100
AcDbVertex
100
AcDb2dVertex
 10
-111.8585212959705
 20
333.2552172822544
 30
50.00784729514272
  0
VERTEX
  5
277
330
259
100
AcDbEntity
  8
000__\U+6742\U+9879
100
AcDbVertex
100
AcDb2dVertex
 10
-111.9081442657706
 20
333.3147507583848
 30
50.00784729514272
  0
VERTEX
  5
278
330
259
100
AcDbEntity
  8
000__\U+6742\U+9879
100
AcDbVertex
100
AcDb2dVertex
 10
-111.9593406620158
 20
333.3730403112326
 30
50.00784729514272
  0
VERTEX
  5
279
330
259
100
AcDbEntity
  8
000__\U+6742\U+9879
100
AcDbVertex
100
AcDb2dVertex
 10
-112.0120629788787
 20
333.4300242257578
 30
50.00784729514272
  0
VERTEX
  5
27A
330
259
100
AcDbEntity
  8
000__\U+6742\U+9879
100
AcDbVertex
100
AcDb2dVertex
 10
-112.0662605151313
 20
333.4856432466152
 30
50.00784729514272
  0
VERTEX
  5
27B
330
259
100
AcDbEntity
  8
000__\U+6742\U+9879
100
AcDbVertex
100
AcDb2dVertex
 10
-112.1218795359878
 20
333.5398407828687
 30
50.00784729514272
  0
VERTEX
  5
27C
330
259
100
AcDbEntity
  8
000__\U+6742\U+9879
100
AcDbVertex
100
AcDb2dVertex
 10
-112.1788634505121
 20
333.5925630997326
 30
50.00784729514272
  0
VERTEX
  5
27D
330
259
100
AcDbEntity
  8
000__\U+6742\U+9879
100
AcDbVertex
100
AcDb2dVertex
 10
-112.237153003359
 20
333.6437594959787
 30
50.00784729514272
  0
VERTEX
  5
27E
330
259
100
AcDbEntity
  8
000__\U+6742\U+9879
100
AcDbVertex
100
AcDb2dVertex
 10
-112.2966864794887
 20
333.6933824657797
 30
50.00784729514272
  0
VERTEX
  5
27F
330
259
100
AcDbEntity
  8
000__\U+6742\U+9879
100
AcDbVertex
100
AcDb2dVertex
 10
-112.3573999203731
 20
333.7413878439096
 30
50.00784729514272
  0
VERTEX
  5
280
330
259
100
AcDbEntity
  8
000__\U+6742\U+9879
100
AcDbVertex
100
AcDb2dVertex
 10
-112.4192273501156
 20
333.7877349333824
 30
50.00784729514272
  0
VERTEX
  5
281
330
259
100
AcDbEntity
  8
000__\U+6742\U+9879
100
AcDbVertex
100
AcDb2dVertex
 10
-112.4821010098254
 20
333.8323866147819
 30
50.00784729514272
  0
VERTEX
  5
282
330
259
100
AcDbEntity
  8
000__\U+6742\U+9879
100
AcDbVertex
100
AcDb2dVertex
 10
-112.5459515985263
 20
333.8753094367116
 30
50.00784729514272
  0
VERTEX
  5
283
330
259
100
AcDbEntity
  8
000__\U+6742\U+9879
100
AcDbVertex
100
AcDb2dVertex
 10
-112.6107085188476
 20
333.9164736869772
 30
50.00784729514272
  0
VERTEX
  5
284
330
259
100
AcDbEntity
  8
000__\U+6742\U+9879
100
AcDbVertex
100
AcDb2dVertex
 10
-112.6763001257219
 20
333.9558534442984
 30
50.00784729514272
  0
VERTEX
  5
285
330
259
100
AcDbEntity
  8
000__\U+6742\U+9879
100
AcDbVertex
100
AcDb2dVertex
 10
-112.7426539763239
 20
333.9934266105298
 30
50.00784729514272
  0
VERTEX
  5
286
330
259
100
AcDbEntity
  8
000__\U+6742\U+9879
100
AcDbVertex
100
AcDb2dVertex
 10
-112.809697079509
 20
334.0291749235461
 30
50.00784729514272
  0
VERTEX
  5
287
330
259
100
AcDbEntity
  8
000__\U+6742\U+9879
100
AcDbVertex
100
AcDb2dVertex
 10
-112.8773561430541
 20
334.0630839511261
 30
50.00784729514272
  0
VERTEX
  5
288
330
259
100
AcDbEntity
  8
000__\U+6742\U+9879
100
AcDbVertex
100
AcDb2dVertex
 10
-112.9455578170702
 20
334.095143066328
 30
50.00784729514272
  0
VERTEX
  5
289
330
259
100
AcDbEntity
  8
000__\U+6742\U+9879
100
AcDbVertex
100
AcDb2dVertex
 10
-113.0142289320344
 20
334.1253454050043
 30
50.00784729514272
  0
VERTEX
  5
28A
330
259
100
AcDbEntity
  8
000__\U+6742\U+9879
100
AcDbVertex
100
AcDb2dVertex
 10
-113.0832967299869
 20
334.1536878062461
 30
50.00784729514272
  0
VERTEX
  5
28B
330
259
100
AcDbEntity
  8
000__\U+6742\U+9879
100
AcDbVertex
100
AcDb2dVertex
 10
-113.1526890875469
 20
334.1801707366718
 30
50.00784729514272
  0
VERTEX
  5
28C
330
259
100
AcDbEntity
  8
000__\U+6742\U+9879
100
AcDbVertex
100
AcDb2dVertex
 10
-113.2223347295245
 20
334.2047981995852
 30
50.00784729514272
  0
VERTEX
  5
28D
330
259
100
AcDbEntity
  8
000__\U+6742\U+9879
100
AcDbVertex
100
AcDb2dVertex
 10
-113.2921634320312
 20
334.2275776301281
 30
50.00784729514272
  0
VERTEX
  5
28E
330
259
100
AcDbEntity
  8
000__\U+6742\U+9879
100
AcDbVertex
100
AcDb2dVertex
 10
-113.3621062141322
 20
334.2485197776227
 30
50.00784729514272
  0
VERTEX
  5
28F
330
259
100
AcDbEntity
  8
000__\U+6742\U+9879
100
AcDbVertex
100
AcDb2dVertex
 10
-113.4320955172218
 20
334.2676385763677
 30
50.00784729514272
  0
VERTEX
  5
290
330
259
100
AcDbEntity
  8
000__\U+6742\U+9879
100
AcDbVertex
100
AcDb2dVertex
 10
-113.5020653714471
 20
334.2849510061914
 30
50.00784729514272
  0
VERTEX
  5
291
330
259
100
AcDbEntity
  8
000__\U+6742\U+9879
100
AcDbVertex
100
AcDb2dVertex
 10
-113.5719515486487
 20
334.3004769440926
 30
50.00784729514272
  0
VERTEX
  5
292
330
259
100
AcDbEntity
  8
000__\U+6742\U+9879
100
AcDbVertex
100
AcDb2dVertex
 10
-113.6416917014282
 20
334.3142390083146
 30
50.00784729514272
  0
VERTEX
  5
293
330
259
100
AcDbEntity
  8
000__\U+6742\U+9879
100
AcDbVertex
100
AcDb2dVertex
 10
-113.711225488089
 20
334.3262623961894
 30
50.00784729514272
  0
VERTEX
  5
294
330
259
100
AcDbEntity
  8
000__\U+6742\U+9879
100
AcDbVertex
100
AcDb2dVertex
 10
-113.780494683332
 20
334.3365747170715
 30
50.00784729514272
  0
VERTEX
  5
295
330
259
100
AcDbEntity
  8
000__\U+6742\U+9879
100
AcDbVertex
100
AcDb2dVertex
 10
-113.8494432747106
 20
334.345205821654
 30
50.00784729514272
  0
VERTEX
  5
296
330
259
100
AcDbEntity
  8
000__\U+6742\U+9879
100
AcDbVertex
100
AcDb2dVertex
 10
-113.9180175449684
 20
334.3521876289074
 30
50.00784729514272
  0
VERTEX
  5
297
330
259
100
AcDbEntity
  8
000__\U+6742\U+9879
100
AcDbVertex
100
AcDb2dVertex
 10
-113.9861661404926
 20
334.3575539518373
 30
50.00784729514272
  0
VERTEX
  5
298
330
259
100
AcDbEntity
  8
000__\U+6742\U+9879
100
AcDbVertex
100
AcDb2dVertex
 10
-114.0538401262142
 20
334.3613403231879
 30
50.00784729514272
  0
VERTEX
  5
299
330
259
100
AcDbEntity
  8
000__\U+6742\U+9879
100
AcDbVertex
100
AcDb2dVertex
 10
-114.1209930273747
 20
334.3635838221527
 30
50.00784729514272
  0
VERTEX
  5
29A
330
259
100
AcDbEntity
  8
000__\U+6742\U+9879
100
AcDbVertex
100
AcDb2dVertex
 10
-114.187580858659
 20
334.3643229030731
 30
50.00784729514272
  0
SEQEND
  5
29B
330
259
100
AcDbEntity
  8
000__\U+6742\U+9879
  0
ARC
  5
29C
330
1F
100
AcDbEntity
  8
000__\U+6742\U+9879
100
AcDbCircle
 10
297.5342762008965
 20
79.63125089316802
 30
-50.00784729514272
 40
1.650000000000034
210
0.0
220
0.0
230
-1.0
100
AcDbArc
 50
270.000000000002
 51
0.0000000000019739
  0
ARC
  5
29D
330
1F
100
AcDbEntity
  8
000__\U+6742\U+9879
100
AcDbCircle
 10
297.5342762008965
 20
79.63125089316802
 30
-50.00784729514272
 40
1.650000000000034
210
0.0
220
0.0
230
-1.0
100
AcDbArc
 50
0.0000000000019739
 51
89.99999999999802
  0
POLYLINE
  5
29E
330
1F
100
AcDbEntity
  8
000__\U+6742\U+9879
100
AcDb2dPolyline
 66
     1
 10
0.0
 20
0.0
 30
50.00784729514272
  0
VERTEX
  5
29F
330
29E
100
AcDbEntity
  8
000__\U+6742\U+9879
100
AcDbVertex
100
AcDb2dVertex
 10
-297.5342762008966
 20
81.28125089316805
 30
50.00784729514272
  0
VERTEX
  5
2A0
330
29E
100
AcDbEntity
  8
000__\U+6742\U+9879
100
AcDbVertex
100
AcDb2dVertex
 10
-294.8342762008965
 20
81.28125089316805
 30
50.00784729514272
  0
SEQEND
  5
2A1
330
29E
100
AcDbEntity
  8
000__\U+6742\U+9879
  0
ARC
  5
2A2
330
1F
100
AcDbEntity
  8
000__\U+6742\U+9879
100
AcDbCircle
 10
294.8342762008965
 20
79.63125089316807
 30
-50.00784729514272
 40
1.649999999999977
210
0.0
220
0.0
230
-1.0
100
AcDbArc
 50
90.0
 51
270.000000000002
  0
POLYLINE
  5
2A3
330
1F
100
AcDbEntity
  8
000__\U+6742\U+9879
100
AcDb2dPolyline
 66
     1
 10
0.0
 20
0.0
 30
50.00784729514272
  0
VERTEX
  5
2A4
330
2A3
100
AcDbEntity
  8
000__\U+6742\U+9879
100
AcDbVertex
100
AcDb2dVertex
 10
-294.8342762008966
 20
77.98125089316804
 30
50.00784729514272
  0
VERTEX
  5
2A5
330
2A3
100
AcDbEntity
  8
000__\U+6742\U+9879
100
AcDbVertex
100
AcDb2dVertex
 10
-297.5342762008966
 20
77.98125089316798
 30
50.00784729514272
  0
SEQEND
  5
2A6
330
2A3
100
AcDbEntity
  8
000__\U+6742\U+9879
  0
ARC
  5
2A7
330
1F
100
AcDbEntity
  8
000__\U+6742\U+9879
100
AcDbCircle
 10
134.8375740122196
 20
79.63125089316802
 30
-50.00784729514272
 40
1.649999999999977
210
0.0
220
0.0
230
-1.0
100
AcDbArc
 50
179.999999999998
 51
270.0
  0
POLYLINE
  5
2A8
330
1F
100
AcDbEntity
  8
000__\U+6742\U+9879
100
AcDb2dPolyline
 66
     1
 10
0.0
 20
0.0
 30
50.00784729514272
  0
VERTEX
  5
2A9
330
2A8
100
AcDbEntity
  8
000__\U+6742\U+9879
100
AcDbVertex
100
AcDb2dVertex
 10
-134.8375740122196
 20
77.98125089316804
 30
50.00784729514272
  0
VERTEX
  5
2AA
330
2A8
100
AcDbEntity
  8
000__\U+6742\U+9879
100
AcDbVertex
100
AcDb2dVertex
 10
-137.5375740122197
 20
77.98125089316798
 30
50.00784729514272
  0
SEQEND
  5
2AB
330
2A8
100
AcDbEntity
  8
000__\U+6742\U+9879
  0
ARC
  5
2AC
330
1F
100
AcDbEntity
  8
000__\U+6742\U+9879
100
AcDbCircle
 10
137.5375740122197
 20
79.63125089316802
 30
-50.00784729514272
 40
1.650000000000034
210
0.0
220
0.0
230
-1.0
100
AcDbArc
 50
270.0
 51
90.0
  0
POLYLINE
  5
2AD
330
1F
100
AcDbEntity
  8
000__\U+6742\U+9879
100
AcDb2dPolyline
 66
     1
 10
0.0
 20
0.0
 30
50.00784729514272
  0
VERTEX
  5
2AE
330
2AD
100
AcDbEntity
  8
000__\U+6742\U+9879
100
AcDbVertex
100
AcDb2dVertex
 10
-137.5375740122197
 20
81.28125089316805
 30
50.00784729514272
  0
VERTEX
  5
2AF
330
2AD
100
AcDbEntity
  8
000__\U+6742\U+9879
100
AcDbVertex
100
AcDb2dVertex
 10
-134.8375740122198
 20
81.28125089316816
 30
50.00784729514272
  0
SEQEND
  5
2B0
330
2AD
100
AcDbEntity
  8
000__\U+6742\U+9879
  0
ARC
  5
2B1
330
1F
100
AcDbEntity
  8
000__\U+6742\U+9879
100
AcDbCircle
 10
134.8375740122199
 20
79.63125089316796
 30
-50.00784729514272
 40
1.650000000000205
210
0.0
220
0.0
230
-1.0
100
AcDbArc
 50
90.00000000000395
 51
179.999999999996
  0
POLYLINE
  5
2B2
330
1F
100
AcDbEntity
  8
000__\U+6742\U+9879
100
AcDb2dPolyline
 66
     1
 10
0.0
 20
0.0
 30
50.00784729514272
  0
VERTEX
  5
2B3
330
2B2
100
AcDbEntity
  8
000__\U+6742\U+9879
100
AcDbVertex
100
AcDb2dVertex
 10
-137.5375740122197
 20
328.7473957742915
 30
50.00784729514272
  0
VERTEX
  5
2B4
330
2B2
100
AcDbEntity
  8
000__\U+6742\U+9879
100
AcDbVertex
100
AcDb2dVertex
 10
-134.8375740122196
 20
328.7473957742915
 30
50.00784729514272
  0
SEQEND
  5
2B5
330
2B2
100
AcDbEntity
  8
000__\U+6742\U+9879
  0
ARC
  5
2B6
330
1F
100
AcDbEntity
  8
000__\U+6742\U+9879
100
AcDbCircle
 10
134.8375740122196
 20
327.0973957742916
 30
-50.00784729514272
 40
1.649999999999977
210
0.0
220
0.0
230
-1.0
100
AcDbArc
 50
90.0
 51
180.0
  0
ARC
  5
2B7
330
1F
100
AcDbEntity
  8
000__\U+6742\U+9879
100
AcDbCircle
 10
134.8375740122198
 20
327.0973957742915
 30
-50.00784729514272
 40
1.650000000000034
210
0.0
220
0.0
230
-1.0
100
AcDbArc
 50
179.999999999998
 51
269.999999999996
  0
POLYLINE
  5
2B8
330
1F
100
AcDbEntity
  8
000__\U+6742\U+9879
100
AcDb2dPolyline
 66
     1
 10
0.0
 20
0.0
 30
50.00784729514272
  0
VERTEX
  5
2B9
330
2B8
100
AcDbEntity
  8
000__\U+6742\U+9879
100
AcDbVertex
100
AcDb2dVertex
 10
-134.8375740122196
 20
325.4473957742915
 30
50.00784729514272
  0
VERTEX
  5
2BA
330
2B8
100
AcDbEntity
  8
000__\U+6742\U+9879
100
AcDbVertex
100
AcDb2dVertex
 10
-137.5375740122197
 20
325.4473957742915
 30
50.00784729514272
  0
SEQEND
  5
2BB
330
2B8
100
AcDbEntity
  8
000__\U+6742\U+9879
  0
ARC
  5
2BC
330
1F
100
AcDbEntity
  8
000__\U+6742\U+9879
100
AcDbCircle
 10
137.5375740122197
 20
327.0973957742915
 30
-50.00784729514272
 40
1.650000000000034
210
0.0
220
0.0
230
-1.0
100
AcDbArc
 50
270.0
 51
90.0
  0
POLYLINE
  5
2BD
330
1F
100
AcDbEntity
  8
000__\U+6742\U+9879
100
AcDb2dPolyline
 66
     1
 10
0.0
 20
0.0
 30
50.00784729514272
  0
VERTEX
  5
2BE
330
2BD
100
AcDbEntity
  8
000__\U+6742\U+9879
100
AcDbVertex
100
AcDb2dVertex
 10
-294.8342762008965
 20
325.4473957742915
 30
50.00784729514272
  0
VERTEX
  5
2BF
330
2BD
100
AcDbEntity
  8
000__\U+6742\U+9879
100
AcDbVertex
100
AcDb2dVertex
 10
-297.5342762008966
 20
325.4473957742914
 30
50.00784729514272
  0
SEQEND
  5
2C0
330
2BD
100
AcDbEntity
  8
000__\U+6742\U+9879
  0
ARC
  5
2C1
330
1F
100
AcDbEntity
  8
000__\U+6742\U+9879
100
AcDbCircle
 10
297.5342762008966
 20
327.0973957742914
 30
-50.00784729514272
 40
1.649999999999977
210
0.0
220
0.0
230
-1.0
100
AcDbArc
 50
270.0
 51
0.0000000000039477
  0
ARC
  5
2C2
330
1F
100
AcDbEntity
  8
000__\U+6742\U+9879
100
AcDbCircle
 10
297.5342762008966
 20
327.0973957742916
 30
-50.00784729514272
 40
1.64999999999992
210
0.0
220
0.0
230
-1.0
100
AcDbArc
 50
359.999999999996
 51
90.0
  0
POLYLINE
  5
2C3
330
1F
100
AcDbEntity
  8
000__\U+6742\U+9879
100
AcDb2dPolyline
 66
     1
 10
0.0
 20
0.0
 30
50.00784729514272
  0
VERTEX
  5
2C4
330
2C3
100
AcDbEntity
  8
000__\U+6742\U+9879
100
AcDbVertex
100
AcDb2dVertex
 10
-297.5342762008966
 20
328.7473957742915
 30
50.00784729514272
  0
VERTEX
  5
2C5
330
2C3
100
AcDbEntity
  8
000__\U+6742\U+9879
100
AcDbVertex
100
AcDb2dVertex
 10
-294.8342762008965
 20
328.7473957742915
 30
50.00784729514272
  0
SEQEND
  5
2C6
330
2C3
100
AcDbEntity
  8
000__\U+6742\U+9879
  0
ARC
  5
2C7
330
1F
100
AcDbEntity
  8
000__\U+6742\U+9879
100
AcDbCircle
 10
294.8342762008965
 20
327.0973957742915
 30
-50.00784729514272
 40
1.649999999999977
210
0.0
220
0.0
230
-1.0
100
AcDbArc
 50
90.0
 51
270.0
  0
ENDSEC
  0
SECTION
  2
OBJECTS
  0
DICTIONARY
  5
C
330
0
100
AcDbDictionary
  3
ACAD_GROUP
350
D
  3
ACAD_LAYOUT
350
1A
  3
ACAD_MATERIAL
350
43
  3
ACAD_MLEADERSTYLE
350
5B
  3
ACAD_MLINESTYLE
350
17
  3
ACAD_PLOTSETTINGS
350
19
  3
ACAD_SCALELIST
350
47
  3
ACAD_VISUALSTYLE
350
2A
  3
ACDBHEADERROUNDTRIPXREC
350
2C8
  3
ACDBVARIABLEDICTIONARY
350
2E9
  3
DWGPROPS
350
2F0
  0
DICTIONARY
  5
2F1
330
8
100
AcDbDictionary
280
     1
  3
ACAD_XREC_ROUNDTRIP
360
2F2
  0
DICTIONARY
  5
D
102
{ACAD_REACTORS
330
C
102
}
330
C
100
AcDbDictionary
  0
DICTIONARY
  5
1A
102
{ACAD_REACTORS
330
C
102
}
330
C
100
AcDbDictionary
  0
DICTIONARY
  5
43
102
{ACAD_REACTORS
330
C
102
}
330
C
100
AcDbDictionary
  3
BYBLOCK
350
45
  3
BYLAYER
350
44
  3
GLOBAL
350
46
  0
DICTIONARY
  5
5B
102
{ACAD_REACTORS
330
C
102
}
330
C
100
AcDbDictionary
  3
STANDARD
350
5C
  0
DICTIONARY
  5
17
102
{ACAD_REACTORS
330
C
102
}
330
C
100
AcDbDictionary
  3
STANDARD
350
18
  0
DICTIONARY
  5
19
102
{ACAD_REACTORS
330
C
102
}
330
C
100
AcDbDictionary
  0
DICTIONARY
  5
47
102
{ACAD_REACTORS
330
C
102
}
330
C
100
AcDbDictionary
  3
A0
350
48
  3
A1
350
49
  3
A2
350
4A
  3
A3
350
4B
  3
A4
350
4C
  3
A5
350
4D
  3
A6
350
4E
  3
A7
350
4F
  3
A8
350
50
  3
A9
350
51
  3
B1
350
52
  3
B2
350
53
  3
B3
350
54
  3
B4
350
55
  3
B5
350
56
  3
B6
350
57
  3
B7
350
58
  0
DICTIONARY
  5
2A
102
{ACAD_REACTORS
330
C
102
}
330
C
100
AcDbDictionary
  3
2DWIREFRAME
350
2F
  3
BASIC
350
32
  3
BRIGHTEN
350
36
  3
COLORCHANGE
350
3A
  3
CONCEPTUAL
350
34
  3
DIM
350
35
  3
EDGECOLOROFF
350
3D
  3
FACEPATTERN
350
39
  3
FLAT
350
2B
  3
FLATWITHEDGES
350
2C
  3
GOURAUD
350
2D
  3
GOURAUDWITHEDGES
350
2E
  3
HIDDEN
350
31
  3
JITTEROFF
350
3B
  3
LINEPATTERN
350
38
  3
OVERHANGOFF
350
3C
  3
REALISTIC
350
33
  3
SHADED
350
42
  3
SHADED_WITH_EDGES
350
41
  3
SHADES_OF_GRAY
350
3E
  3
SKETCHY
350
3F
  3
THICKEN
350
37
  3
WIREFRAME
350
30
  3
X-RAY
350
40
  0
DICTIONARY
  5
2C8
102
{ACAD_REACTORS
330
C
102
}
330
C
100
AcDbDictionary
  3
CEPSNID
350
2D2
  3
CEPSNTYPE
350
2D1
  3
DIMSTYLEDATA
350
2E8
  3
FINGERPRINTGUID
350
2D3
  3
HYPERLINKBASE
350
2CB
  3
INSUNITS
350
2D0
  3
LAYOUTDICT
350
2CD
  3
LWETCUNION
350
2CF
  3
PLOTSETDICT
350
2CE
  3
PSVPSCALE
350
2D5
  3
PUCSBASE
350
2D8
  3
PUCSORGBACK
350
2DE
  3
PUCSORGBOTTOM
350
2DA
  3
PUCSORGFRONT
350
2DD
  3
PUCSORGLEFT
350
2DB
  3
PUCSORGRIGHT
350
2DC
  3
PUCSORGTOP
350
2D9
  3
PUCSORTHOREF
350
2D6
  3
PUCSORTHOVIEW
350
2D7
  3
STYLESHEET
350
2CC
  3
TSTACKALIGN
350
2C9
  3
TSTACKSIZE
350
2CA
  3
UCSBASE
350
2E1
  3
UCSORGBACK
350
2E7
  3
UCSORGBOTTOM
350
2E3
  3
UCSORGFRONT
350
2E6
  3
UCSORGLEFT
350
2E4
  3
UCSORGRIGHT
350
2E5
  3
UCSORGTOP
350
2E2
  3
UCSORTHOREF
350
2DF
  3
UCSORTHOVIEW
350
2E0
  3
VERSIONGUID
350
2D4
  0
DICTIONARY
  5
2E9
102
{ACAD_REACTORS
330
C
102
}
330
C
100
AcDbDictionary
  3
CANNOSCALE
350
2F3
  3
CMLEADERSTYLE
350
2EB
  3
CTABLESTYLE
350
2EA
  3
DIMASSOC
350
2EE
  3
HIDETEXT
350
2EF
  3
MSLTSCALE
350
2F4
  0
XRECORD
  5
2F0
102
{ACAD_REACTORS
330
C
102
}
330
C
100
AcDbXrecord
  1
DWGPROPS COOKIE
  2

  3

  4

  6

  7

  8
zhengyu tu
  9

300
=
301
=
302
=
303
=
304
=
305
=
306
=
307
=
308
=
309
=
 40
0.0
 41
2460067.195374746
 42
2460067.195387245
  1

 90
        0
  0
XRECORD
  5
2F2
102
{ACAD_REACTORS
330
2F1
102
}
330
2F1
100
AcDbXrecord
102
VTR_0.000_0.000_1.000_1.000_VISUALSTYLE
340
2F
102
VTR_0.000_0.000_1.000_1.000_GRIDDISPLAY
 70
     3
102
VTR_0.000_0.000_1.000_1.000_GRIDMAJOR
 70
     5
102
VTR_0.000_0.000_1.000_1.000_DEFAULTLIGHTING
280
     1
102
VTR_0.000_0.000_1.000_1.000_DEFAULTLIGHTINGTYPE
 70
     1
102
VTR_0.000_0.000_1.000_1.000_BRIGHTNESS
141
0.0
102
VTR_0.000_0.000_1.000_1.000_CONTRAST
142
0.0
  0
MATERIAL
  5
45
102
{ACAD_REACTORS
330
43
102
}
102
{ACAD_XDICTIONARY
360
2F7
102
}
330
43
100
AcDbMaterial
  1
BYBLOCK
  0
MATERIAL
  5
44
102
{ACAD_REACTORS
330
43
102
}
102
{ACAD_XDICTIONARY
360
2F5
102
}
330
43
100
AcDbMaterial
  1
BYLAYER
  0
MATERIAL
  5
46
102
{ACAD_REACTORS
330
43
102
}
102
{ACAD_XDICTIONARY
360
2F9
102
}
330
43
100
AcDbMaterial
  1
GLOBAL
  0
ACAD_PROXY_OBJECT
  5
5C
102
{ACAD_REACTORS
330
5B
102
}
330
5B
100
AcDbProxyObject
 90
      499
 91
      505
 93
      610
310
40901902A4063FBFFFFFE056BD1B81E855B9FC0AD7A3703D0AD73F4214DD185B99185C9900AD7A3703D0AC73F90141901A02B5E8DC0F42B1CFC02B5E8DC0F42B1CFE5764000000000000300FC0
340
14
340
0
340
11
340
0
 94
        0
1001
ACAD_MLEADERVER
1070
     2
  0
MLINESTYLE
  5
18
102
{ACAD_REACTORS
330
17
102
}
330
17
100
AcDbMlineStyle
  2
Standard
 70
     0
  3

 62
   256
 51
90.0
 52
90.0
 71
     2
 49
0.5
 62
   256
  6
BYLAYER
 49
-0.5
 62
   256
  6
BYLAYER
  0
ACAD_PROXY_OBJECT
  5
48
102
{ACAD_REACTORS
330
47
102
}
330
47
100
AcDbProxyObject
 90
      499
 91
      503
 93
       41
310
903313A31580
  0
ACAD_PROXY_OBJECT
  5
49
102
{ACAD_REACTORS
330
47
102
}
330
47
100
AcDbProxyObject
 90
      499
 91
      503
 93
      257
310
90E312F31323822203D2031272D3022000000000000200FC000000000000284000
  0
ACAD_PROXY_OBJECT
  5
4A
102
{ACAD_REACTORS
330
47
102
}
330
47
100
AcDbProxyObject
 90
      499
 91
      503
 93
      249
310
90D312F363422203D2031272D3022000000000000240FC000000000000284000
  0
ACAD_PROXY_OBJECT
  5
4B
102
{ACAD_REACTORS
330
47
102
}
330
47
100
AcDbProxyObject
 90
      499
 91
      503
 93
      249
310
90D312F333222203D2031272D3022000000000000280FC000000000000284000
  0
ACAD_PROXY_OBJECT
  5
4C
102
{ACAD_REACTORS
330
47
102
}
330
47
100
AcDbProxyObject
 90
      499
 91
      503
 93
      249
310
90D312F313622203D2031272D30220000000000002C0FC000000000000284000
  0
ACAD_PROXY_OBJECT
  5
4D
102
{ACAD_REACTORS
330
47
102
}
330
47
100
AcDbProxyObject
 90
      499
 91
      503
 93
      249
310
90D332F333222203D2031272D30220000000000002E0FC000000000000284000
  0
ACAD_PROXY_OBJECT
  5
4E
102
{ACAD_REACTORS
330
47
102
}
330
47
100
AcDbProxyObject
 90
      499
 91
      503
 93
      241
310
90C312F3822203D2031272D3022000000000000300FC000000000000284000
  0
ACAD_PROXY_OBJECT
  5
4F
102
{ACAD_REACTORS
330
47
102
}
330
47
100
AcDbProxyObject
 90
      499
 91
      503
 93
      249
310
90D332F313622203D2031272D3022000000000000320FC000000000000284000
  0
ACAD_PROXY_OBJECT
  5
50
102
{ACAD_REACTORS
330
47
102
}
330
47
100
AcDbProxyObject
 90
      499
 91
      503
 93
      241
310
90C312F3422203D2031272D3022000000000000340FC000000000000284000
  0
ACAD_PROXY_OBJECT
  5
51
102
{ACAD_REACTORS
330
47
102
}
330
47
100
AcDbProxyObject
 90
      499
 91
      503
 93
      241
310
90C332F3822203D2031272D3022000000000000360FC000000000000284000
  0
ACAD_PROXY_OBJECT
  5
52
102
{ACAD_REACTORS
330
47
102
}
330
47
100
AcDbProxyObject
 90
      499
 91
      503
 93
      241
310
90C312F3222203D2031272D3022000000000000380FC000000000000284000
  0
ACAD_PROXY_OBJECT
  5
53
102
{ACAD_REACTORS
330
47
102
}
330
47
100
AcDbProxyObject
 90
      499
 91
      503
 93
      241
310
90C332F3422203D2031272D30220000000000003A0FC000000000000284000
  0
ACAD_PROXY_OBJECT
  5
54
102
{ACAD_REACTORS
330
47
102
}
330
47
100
AcDbProxyObject
 90
      499
 91
      503
 93
      161
310
90A3122203D2031272D30224000000000000284000
  0
ACAD_PROXY_OBJECT
  5
55
102
{ACAD_REACTORS
330
47
102
}
330
47
100
AcDbProxyObject
 90
      499
 91
      503
 93
      257
310
90E312D312F3222203D2031272D30220000000000003E0FC000000000000284000
  0
ACAD_PROXY_OBJECT
  5
56
102
{ACAD_REACTORS
330
47
102
}
330
47
100
AcDbProxyObject
 90
      499
 91
      503
 93
      225
310
90A3322203D2031272D302200000000000002100000000000000284000
  0
ACAD_PROXY_OBJECT
  5
57
102
{ACAD_REACTORS
330
47
102
}
330
47
100
AcDbProxyObject
 90
      499
 91
      503
 93
      225
310
90A3622203D2031272D302200000000000006100000000000000284000
  0
ACAD_PROXY_OBJECT
  5
58
102
{ACAD_REACTORS
330
47
102
}
330
47
100
AcDbProxyObject
 90
      499
 91
      503
 93
      249
310
90D31272D3022203D2031272D30220000000000000A100000000000000284000
  0
ACAD_PROXY_OBJECT
  5
2F
102
{ACAD_REACTORS
330
2A
102
}
330
2A
100
AcDbProxyObject
 90
      499
 91
      501
 93
      436
310
42CC9915DA5C99599C985B595049028333333333333E33F0000000000000F90107901411070040501600405405064090741402480A0340
1001
ACAD
1000
AcDbSavedByObjectVersion
1070
     0
  0
ACAD_PROXY_OBJECT
  5
32
102
{ACAD_REACTORS
330
2A
102
}
330
2A
100
AcDbProxyObject
 90
      499
 91
      501
 93
      388
310
4150985CDA58D07406404333333333333E33F0000000000000F90107A41107004050150841D405064090741402480A0350
1001
ACAD
1000
AcDbSavedByObjectVersion
1070
     0
  0
ACAD_PROXY_OBJECT
  5
36
102
{ACAD_REACTORS
330
2A
102
}
330
2A
100
AcDbProxyObject
 90
      499
 91
      501
 93
      428
310
42109C9A59DA1D195B90C409028333333333333E33F0000000000000F9010790141107004050150841D405064090741402480A029950
1001
ACAD
1000
AcDbSavedByObjectVersion
1070
     0
  0
ACAD_PROXY_OBJECT
  5
3A
102
{ACAD_REACTORS
330
2A
102
}
330
2A
100
AcDbProxyObject
 90
      499
 91
      501
 93
      452
310
42D0DBDB1BDC90DA185B99D95104090240C333333333333E33F0000000000000F90108901411070040501508421405064090741402480A0350
1001
ACAD
1000
AcDbSavedByObjectVersion
1070
     0
  0
ACAD_PROXY_OBJECT
  5
34
102
{ACAD_REACTORS
330
2A
102
}
330
2A
100
AcDbProxyObject
 90
      499
 91
      501
 93
      500
310
4290DBDB98D95C1D1D585B10940D028333333333333E33F0000000000000F90107902409070040501000000000018199010841D405064090740C02480A0340
1001
ACAD
1000
AcDbSavedByObjectVersion
1070
     0
  0
ACAD_PROXY_OBJECT
  5
35
102
{ACAD_REACTORS
330
2A
102
}
330
2A
100
AcDbProxyObject
 90
      499
 91
      501
 93
      412
310
40D11A5B50B409028333333333333E33F0000000000000F9010790141107004050150841D405064090741402480A02677FFFFFD0
1001
ACAD
1000
AcDbSavedByObjectVersion
1070
     0
  0
ACAD_PROXY_OBJECT
  5
3D
102
{ACAD_REACTORS
330
2A
102
}
330
2A
100
AcDbProxyObject
 90
      499
 91
      501
 93
      452
310
43115919D950DBDB1BDC93D999916409028333333333333E33F0000000000000F9010790141107004050150841D405064090741402480A0350
1001
ACAD
1000
AcDbSavedByObjectVersion
1070
     0
  0
ACAD_PROXY_OBJECT
  5
39
102
{ACAD_REACTORS
330
2A
102
}
330
2A
100
AcDbProxyObject
 90
      499
 91
      501
 93
      444
310
42D19858D95C185D1D195C9B90F409028333333333333E33F0000000000000F9010790141107004050150841D405064090741402480A0350
1001
ACAD
1000
AcDbSavedByObjectVersion
1070
     0
  0
ACAD_PROXY_OBJECT
  5
2B
102
{ACAD_REACTORS
330
2A
102
}
330
2A
100
AcDbProxyObject
 90
      499
 91
      501
 93
      380
310
41119B185D240901404333333333333E33F0000000000000F9010740A907004050150841D405064090741402480A1B50
1001
ACAD
1000
AcDbSavedByObjectVersion
1070
     0
  0
ACAD_PROXY_OBJECT
  5
2C
102
{ACAD_REACTORS
330
2A
102
}
330
2A
100
AcDbProxyObject
 90
      499
 91
      501
 93
      468
310
43519B185D15DA5D1A115919D95CD0140901404333333333333E33F0000000000000F90107409019070040501600405405064090741402480A1B50
1001
ACAD
1000
AcDbSavedByObjectVersion
1070
     0
  0
ACAD_PROXY_OBJECT
  5
2D
102
{ACAD_REACTORS
330
2A
102
}
330
2A
100
AcDbProxyObject
 90
      499
 91
      501
 93
      404
310
41D1DBDD5C985D5910240902404333333333333E33F0000000000000F9010740A9070040501641D405064090741402480A1B50
1001
ACAD
1000
AcDbSavedByObjectVersion
1070
     0
  0
ACAD_PROXY_OBJECT
  5
2E
102
{ACAD_REACTORS
330
2A
102
}
330
2A
100
AcDbProxyObject
 90
      499
 91
      501
 93
      492
310
4411DBDD5C985D5915DA5D1A115919D95CD0340902404333333333333E33F0000000000000F90107409019070040501600405405064090741402480A1B50
1001
ACAD
1000
AcDbSavedByObjectVersion
1070
     0
  0
ACAD_PROXY_OBJECT
  5
31
102
{ACAD_REACTORS
330
2A
102
}
330
2A
100
AcDbProxyObject
 90
      499
 91
      501
 93
      476
310
41921A5919195B90640502408333333333333E33F0000000000000F901079024090700405020000000000001110200405405064090740C02480A0340
1001
ACAD
1000
AcDbSavedByObjectVersion
1070
     0
  0
ACAD_PROXY_OBJECT
  5
3B
102
{ACAD_REACTORS
330
2A
102
}
330
2A
100
AcDbProxyObject
 90
      499
 91
      501
 93
      428
310
42529A5D1D195C93D999914409028333333333333E33F0000000000000F9010790141107004050150A41D405064090741402480A0350
1001
ACAD
1000
AcDbSavedByObjectVersion
1070
     0
  0
ACAD_PROXY_OBJECT
  5
38
102
{ACAD_REACTORS
330
2A
102
}
330
2A
100
AcDbProxyObject
 90
      499
 91
      501
 93
      444
310
42D31A5B995C185D1D195C9B90E409028333333333333E33F0000000000000F9010790141107004050750841D405064090741402483A0350
1001
ACAD
1000
AcDbSavedByObjectVersion
1070
     0
  0
ACAD_PROXY_OBJECT
  5
3C
102
{ACAD_REACTORS
330
2A
102
}
330
2A
100
AcDbProxyObject
 90
      499
 91
      501
 93
      444
310
42D3DD995C9A185B99D3D999915409028333333333333E33F0000000000000F9010790141107004050150941D405064090741402480A0350
1001
ACAD
1000
AcDbSavedByObjectVersion
1070
     0
  0
ACAD_PROXY_OBJECT
  5
33
102
{ACAD_REACTORS
330
2A
102
}
330
2A
100
AcDbProxyObject
 90
      499
 91
      501
 93
      428
310
425499585B1A5CDD1A58D08409038333333333333E33F0000000000000F9010740A907004050150800405405064090740C02480A1B40
1001
ACAD
1000
AcDbSavedByObjectVersion
1070
     0
  0
ACAD_PROXY_OBJECT
  5
42
102
{ACAD_REACTORS
330
2A
102
}
330
2A
100
AcDbProxyObject
 90
      499
 91
      501
 93
      420
310
4194DA1859195911B40902404333333333333E33F0000000000000F9010740A41107004050150800405405064090840C02480A0B40
1001
ACAD
1000
AcDbSavedByObjectVersion
1070
     0
  0
ACAD_PROXY_OBJECT
  5
41
102
{ACAD_REACTORS
330
2A
102
}
330
2A
100
AcDbProxyObject
 90
      499
 91
      501
 93
      516
310
4454DA18591959081DDA5D1A08195919D95CD1A40902404333333333333E33F0000000000000F901074090142907004050250800405405064090740C02480A0B40
1001
ACAD
1000
AcDbSavedByObjectVersion
1070
     0
  0
ACAD_PROXY_OBJECT
  5
3E
102
{ACAD_REACTORS
330
2A
102
}
330
2A
100
AcDbProxyObject
 90
      499
 91
      501
 93
      532
310
4394DA1859195CC81BD98811DC985E5174090240C333333333333E33F0000000000000F901079024090741D01000000000000111010841D405064090740C02480A0340
1001
ACAD
1000
AcDbSavedByObjectVersion
1070
     0
  0
ACAD_PROXY_OBJECT
  5
3F
102
{ACAD_REACTORS
330
2A
102
}
330
2A
100
AcDbProxyObject
 90
      499
 91
      501
 93
      476
310
41D4DAD95D18DA1E51840502408333333333333E33F0000000000000F901079024090741D01000000000000111010B41D405064090741802480A0340
1001
ACAD
1000
AcDbSavedByObjectVersion
1070
     0
  0
ACAD_PROXY_OBJECT
  5
37
102
{ACAD_REACTORS
330
2A
102
}
330
2A
100
AcDbProxyObject
 90
      499
 91
      501
 93
      412
310
41D51A1A58DAD95B90D409028333333333333E33F0000000000000F9010790141107004050150C41D405064090741402480A0350
1001
ACAD
1000
AcDbSavedByObjectVersion
1070
     0
  0
ACAD_PROXY_OBJECT
  5
30
102
{ACAD_REACTORS
330
2A
102
}
330
2A
100
AcDbProxyObject
 90
      499
 91
      501
 93
      420
310
4255DA5C99599C985B595059028333333333333E33F0000000000000F90107901411070040501600405405064090740C02480A0340
1001
ACAD
1000
AcDbSavedByObjectVersion
1070
     0
  0
ACAD_PROXY_OBJECT
  5
40
102
{ACAD_REACTORS
330
2A
102
}
330
2A
100
AcDbProxyObject
 90
      499
 91
      501
 93
      404
310
41560B54985E51940902404000000000000E03F0000000000000F9010740501907004050150841D405064090740C02480A1B40
1001
ACAD
1000
AcDbSavedByObjectVersion
1070
     0
  0
XRECORD
  5
2D2
102
{ACAD_REACTORS
330
2C8
102
}
330
2C8
100
AcDbXrecord
340
0
  0
XRECORD
  5
2D1
102
{ACAD_REACTORS
330
2C8
102
}
330
2C8
100
AcDbXrecord
 90
        0
  0
XRECORD
  5
2E8
102
{ACAD_REACTORS
330
2C8
102
}
330
2C8
100
AcDbXrecord
1000
DSTYLE
1002
{
1070
   171
 70
     2
1070
   143
 40
25.4
1070
   274
 70
     2
1070
    41
 40
0.18
1070
   141
 40
0.09
1070
   271
 70
     4
1070
    43
 40
0.38
1070
   278
 70
    46
1070
    44
 40
0.18
1070
    42
 40
0.0625
1070
   147
 40
0.09
1070
    77
 70
     0
1070
   272
 70
     4
1070
    73
 70
     1
1070
   279
 70
     2
1070
   172
 70
     0
1070
    74
 70
     1
1070
   283
 70
     1
1070
   340
340
11
1070
   140
 40
0.18
1070
   284
 70
     0
1070
    78
 70
     0
1002
}
  0
XRECORD
  5
2D3
102
{ACAD_REACTORS
330
2C8
102
}
330
2C8
100
AcDbXrecord
  1
{a0f65871-e862-4c03-a736-e63ae430889f}
  0
XRECORD
  5
2CB
102
{ACAD_REACTORS
330
2C8
102
}
330
2C8
100
AcDbXrecord
  1

  0
XRECORD
  5
2D0
102
{ACAD_REACTORS
330
2C8
102
}
330
2C8
100
AcDbXrecord
 90
        4
  0
XRECORD
  5
2CD
102
{ACAD_REACTORS
330
2C8
102
}
330
2C8
100
AcDbXrecord
340
1A
  0
XRECORD
  5
2CF
102
{ACAD_REACTORS
330
2C8
102
}
330
2C8
100
AcDbXrecord
 90
    10781
  0
XRECORD
  5
2CE
102
{ACAD_REACTORS
330
2C8
102
}
330
2C8
100
AcDbXrecord
340
19
  0
XRECORD
  5
2D5
102
{ACAD_REACTORS
330
2C8
102
}
330
2C8
100
AcDbXrecord
 40
0.0
  0
XRECORD
  5
2D8
102
{ACAD_REACTORS
330
2C8
102
}
330
2C8
100
AcDbXrecord
340
0
  0
XRECORD
  5
2DE
102
{ACAD_REACTORS
330
2C8
102
}
330
2C8
100
AcDbXrecord
 10
0.0
 20
0.0
 30
0.0
  0
XRECORD
  5
2DA
102
{ACAD_REACTORS
330
2C8
102
}
330
2C8
100
AcDbXrecord
 10
0.0
 20
0.0
 30
0.0
  0
XRECORD
  5
2DD
102
{ACAD_REACTORS
330
2C8
102
}
330
2C8
100
AcDbXrecord
 10
0.0
 20
0.0
 30
0.0
  0
XRECORD
  5
2DB
102
{ACAD_REACTORS
330
2C8
102
}
330
2C8
100
AcDbXrecord
 10
0.0
 20
0.0
 30
0.0
  0
XRECORD
  5
2DC
102
{ACAD_REACTORS
330
2C8
102
}
330
2C8
100
AcDbXrecord
 10
0.0
 20
0.0
 30
0.0
  0
XRECORD
  5
2D9
102
{ACAD_REACTORS
330
2C8
102
}
330
2C8
100
AcDbXrecord
 10
0.0
 20
0.0
 30
0.0
  0
XRECORD
  5
2D6
102
{ACAD_REACTORS
330
2C8
102
}
330
2C8
100
AcDbXrecord
340
0
  0
XRECORD
  5
2D7
102
{ACAD_REACTORS
330
2C8
102
}
330
2C8
100
AcDbXrecord
 70
     0
  0
XRECORD
  5
2CC
102
{ACAD_REACTORS
330
2C8
102
}
330
2C8
100
AcDbXrecord
  1

  0
XRECORD
  5
2C9
102
{ACAD_REACTORS
330
2C8
102
}
330
2C8
100
AcDbXrecord
 90
        1
  0
XRECORD
  5
2CA
102
{ACAD_REACTORS
330
2C8
102
}
330
2C8
100
AcDbXrecord
 90
       70
  0
XRECORD
  5
2E1
102
{ACAD_REACTORS
330
2C8
102
}
330
2C8
100
AcDbXrecord
340
0
  0
XRECORD
  5
2E7
102
{ACAD_REACTORS
330
2C8
102
}
330
2C8
100
AcDbXrecord
 10
0.0
 20
0.0
 30
0.0
  0
XRECORD
  5
2E3
102
{ACAD_REACTORS
330
2C8
102
}
330
2C8
100
AcDbXrecord
 10
0.0
 20
0.0
 30
0.0
  0
XRECORD
  5
2E6
102
{ACAD_REACTORS
330
2C8
102
}
330
2C8
100
AcDbXrecord
 10
0.0
 20
0.0
 30
0.0
  0
XRECORD
  5
2E4
102
{ACAD_REACTORS
330
2C8
102
}
330
2C8
100
AcDbXrecord
 10
0.0
 20
0.0
 30
0.0
  0
XRECORD
  5
2E5
102
{ACAD_REACTORS
330
2C8
102
}
330
2C8
100
AcDbXrecord
 10
0.0
 20
0.0
 30
0.0
  0
XRECORD
  5
2E2
102
{ACAD_REACTORS
330
2C8
102
}
330
2C8
100
AcDbXrecord
 10
0.0
 20
0.0
 30
0.0
  0
XRECORD
  5
2DF
102
{ACAD_REACTORS
330
2C8
102
}
330
2C8
100
AcDbXrecord
340
0
  0
XRECORD
  5
2E0
102
{ACAD_REACTORS
330
2C8
102
}
330
2C8
100
AcDbXrecord
 70
     0
  0
XRECORD
  5
2D4
102
{ACAD_REACTORS
330
2C8
102
}
330
2C8
100
AcDbXrecord
  1
{FAEB1C32-E019-11D5-929B-00C0DF256EC4}
  0
DICTIONARYVAR
  5
2F3
102
{ACAD_REACTORS
330
2E9
102
}
330
2E9
100
DictionaryVariables
280
     0
  1
1:1
  0
DICTIONARYVAR
  5
2EB
102
{ACAD_REACTORS
330
2E9
102
}
330
2E9
100
DictionaryVariables
280
     0
  1
Standard
  0
DICTIONARYVAR
  5
2EA
102
{ACAD_REACTORS
330
2E9
102
}
330
2E9
100
DictionaryVariables
280
     0
  1
Standard
  0
DICTIONARYVAR
  5
2EE
102
{ACAD_REACTORS
330
2E9
102
}
330
2E9
100
DictionaryVariables
280
     0
  1
2
  0
DICTIONARYVAR
  5
2EF
102
{ACAD_REACTORS
330
2E9
102
}
330
2E9
100
DictionaryVariables
280
     0
  1
1
  0
DICTIONARYVAR
  5
2F4
102
{ACAD_REACTORS
330
2E9
102
}
330
2E9
100
DictionaryVariables
280
     0
  1
1
  0
DICTIONARY
  5
2F7
330
45
100
AcDbDictionary
280
     1
  3
ACAD_XREC_ROUNDTRIP
360
2F8
  0
DICTIONARY
  5
2F5
330
44
100
AcDbDictionary
280
     1
  3
ACAD_XREC_ROUNDTRIP
360
2F6
  0
DICTIONARY
  5
2F9
330
46
100
AcDbDictionary
280
     1
  3
ACAD_XREC_ROUNDTRIP
360
2FA
  0
XRECORD
  5
2F8
102
{ACAD_REACTORS
330
2F7
102
}
330
2F7
100
AcDbXrecord
102
MATERIAL
148
0.0
149
0.0
149
0.0
 93
        0
 94
      127
282
     0
 72
     1
 77
     1
171
     1
175
     1
179
     1
273
     0
  0
XRECORD
  5
2F6
102
{ACAD_REACTORS
330
2F5
102
}
330
2F5
100
AcDbXrecord
102
MATERIAL
148
0.0
149
0.0
149
0.0
 93
        0
 94
      127
282
     0
 72
     1
 77
     1
171
     1
175
     1
179
     1
273
     0
  0
XRECORD
  5
2FA
102
{ACAD_REACTORS
330
2F9
102
}
330
2F9
100
AcDbXrecord
102
MATERIAL
148
0.0
149
0.0
149
0.0
 93
        0
 94
      127
282
     0
 72
     1
 77
     1
171
     1
175
     1
179
     1
273
     0
  0
ENDSEC
  0
EOF
